<svg width="286" height="286" viewBox="0 0 286 286" fill="none" xmlns="http://www.w3.org/2000/svg">
<circle cx="143" cy="143" r="143" fill="url(#paint0_linear_22_748)"/>
<circle cx="143" cy="143" r="116" fill="#FF833E" fill-opacity="0.62"/>
<path d="M212.539 60.8113H163.991V111.42H212.539V60.8113Z" fill="#E0E0E0"/>
<path d="M209.252 60.8113H160.703V111.42H209.252V60.8113Z" fill="#FAFAFA"/>
<path d="M209.264 111.433H160.686V60.7941H209.264V111.433ZM160.712 111.403H209.234V60.8243H160.712V111.403Z" fill="#E0E0E0"/>
<path d="M202.724 67.6154H167.227V104.616H202.724V67.6154Z" fill="white"/>
<path d="M167.227 104.862C166.979 105.235 166.689 105.577 166.363 105.882C165.797 106.478 165.002 107.286 164.108 108.167C163.213 109.049 162.38 109.83 161.788 110.388C161.482 110.715 161.138 111.005 160.764 111.252C161.009 110.879 161.3 110.538 161.628 110.237C162.194 109.636 162.993 108.828 163.887 107.943C164.781 107.057 165.615 106.275 166.211 105.722C166.514 105.396 166.855 105.107 167.227 104.862Z" fill="#E0E0E0"/>
<path d="M202.724 104.776C203.097 105.022 203.44 105.312 203.744 105.64C204.34 106.206 205.152 107.001 206.029 107.895C206.906 108.789 207.692 109.623 208.249 110.215C208.577 110.521 208.867 110.865 209.113 111.239C208.741 110.993 208.4 110.703 208.098 110.375C207.502 109.809 206.69 109.01 205.804 108.115C204.919 107.221 204.137 106.387 203.584 105.791C203.257 105.489 202.969 105.148 202.724 104.776Z" fill="#E0E0E0"/>
<path d="M202.616 67.7147C202.864 67.3429 203.154 67.0008 203.48 66.6952C204.046 66.0947 204.845 65.2869 205.735 64.4056C206.625 63.5243 207.463 62.7424 208.055 62.1894C208.362 61.8614 208.707 61.5713 209.083 61.3254C208.835 61.6945 208.545 62.0337 208.219 62.3363C207.653 62.9368 206.854 63.749 205.96 64.6302C205.065 65.5115 204.232 66.2978 203.636 66.855C203.332 67.1817 202.989 67.4703 202.616 67.7147Z" fill="#E0E0E0"/>
<path d="M167.132 67.8054C166.76 67.5574 166.418 67.2675 166.112 66.9414C165.516 66.3755 164.704 65.5763 163.827 64.6864C162.95 63.7965 162.159 62.9584 161.606 62.3665C161.278 62.0596 160.988 61.7144 160.742 61.3384C161.112 61.587 161.453 61.8768 161.757 62.2024C162.354 62.7683 163.166 63.5675 164.047 64.4617C164.928 65.356 165.715 66.1897 166.272 66.7859C166.598 67.0898 166.887 67.4321 167.132 67.8054Z" fill="#E0E0E0"/>
<path d="M202.616 104.616C202.616 104.616 202.616 104.551 202.616 104.435C202.616 104.318 202.616 104.141 202.616 103.921C202.616 103.454 202.616 102.789 202.616 101.92C202.616 100.192 202.594 97.6004 202.581 94.382C202.581 87.902 202.538 78.6702 202.512 67.598L202.646 67.7319L167.252 67.7535L167.412 67.598C167.412 81.1758 167.412 93.8852 167.391 104.599L167.252 104.465L192.883 104.534L200.084 104.569H201.99H202.482H202.651H202.495H202.02H200.141L192.969 104.603L167.252 104.672H167.119V104.538C167.119 93.8247 167.119 81.1153 167.119 67.5375V67.3777H167.278H202.672H202.81V67.6239C202.78 78.7134 202.759 87.9754 202.741 94.477C202.741 97.6998 202.715 100.24 202.707 101.985C202.707 102.849 202.707 103.502 202.707 103.959C202.707 104.171 202.707 104.335 202.707 104.461C202.684 104.516 202.653 104.569 202.616 104.616Z" fill="#E0E0E0"/>
<path d="M190.9 80.1909H179.055V92.0364H190.9V80.1909Z" fill="#EBEBEB"/>
<path d="M220.808 194.632C223.451 193.267 226.57 193.09 229.508 193.574C231.085 193.833 232.731 194.308 233.806 195.492C234.882 196.675 235.081 198.766 233.85 199.786C233.115 200.391 232.091 200.481 231.141 200.473C228.838 200.442 226.285 200.041 224.449 201.423C223.4 202.214 222.721 203.527 221.451 203.916C220.181 204.304 218.859 203.57 218.19 202.464C217.59 201.312 217.459 199.974 217.822 198.727C217.971 197.861 218.318 197.04 218.835 196.33C219.353 195.62 220.028 195.039 220.808 194.632Z" fill="#EBEBEB"/>
<path d="M214.742 182.912C216.362 185.223 219.494 184.458 220.963 183.05C222.432 181.642 223.041 179.594 223.598 177.642C224.894 173.188 226.19 168.513 225.223 163.977C224.997 162.604 224.399 161.32 223.495 160.262C222.54 159.256 221.075 158.655 219.736 159.009C218.151 159.441 217.144 160.984 216.453 162.465C214.353 166.828 213.252 171.603 213.23 176.445C213.23 178.696 213.489 181.059 214.76 182.925" fill="#EBEBEB"/>
<path d="M209.96 192.926C211.718 190.839 212.051 187.798 211.256 185.184C210.461 182.57 208.707 180.35 206.672 178.536C204.276 176.404 201.489 174.76 198.464 173.693C197.293 173.219 196.033 173.005 194.771 173.066C194.141 173.104 193.53 173.295 192.991 173.621C192.451 173.948 191.999 174.401 191.673 174.941C190.809 176.587 191.639 178.587 192.537 180.216C194.12 183.087 195.922 185.832 197.929 188.424C199.549 190.506 201.385 192.563 203.86 193.504C206.336 194.446 208.88 194.334 210.189 192.64" fill="#EBEBEB"/>
<path d="M214.634 217.779C214.719 217.435 214.768 217.083 214.781 216.729C214.855 215.964 214.945 215.001 215.058 213.865C215.201 212.452 215.416 211.048 215.701 209.657C216.08 207.966 216.591 206.308 217.231 204.698C217.858 203.087 218.712 201.575 219.766 200.205C220.623 199.091 221.716 198.182 222.968 197.544C223.817 197.122 224.729 196.839 225.668 196.706C226.021 196.692 226.371 196.64 226.713 196.55C226.358 196.514 226.001 196.514 225.646 196.55C224.672 196.623 223.72 196.87 222.834 197.28C221.516 197.905 220.36 198.824 219.455 199.967C218.359 201.356 217.473 202.899 216.829 204.546C216.179 206.181 215.671 207.87 215.312 209.592C215.041 210.998 214.854 212.419 214.751 213.847C214.66 215.066 214.626 216.051 214.613 216.733C214.581 217.081 214.588 217.432 214.634 217.779Z" fill="#E0E0E0"/>
<path d="M214.829 215.575C214.86 215.415 214.87 215.251 214.859 215.087C214.859 214.72 214.859 214.258 214.859 213.692C214.859 212.482 214.859 210.733 214.919 208.573C215.027 204.253 215.399 199.596 216.12 193.021C216.799 186.856 217.714 179.676 218.678 175.011C218.885 173.952 219.11 172.993 219.287 172.159C219.464 171.326 219.637 170.6 219.788 169.999L220.116 168.647C220.165 168.49 220.193 168.328 220.198 168.163C220.127 168.31 220.071 168.463 220.03 168.621C219.926 168.973 219.792 169.418 219.628 169.956C219.447 170.535 219.265 171.252 219.054 172.09C218.842 172.928 218.622 173.874 218.38 174.933C217.184 180.452 216.286 186.031 215.688 191.647C214.967 198.218 214.643 204.201 214.617 208.538C214.591 210.698 214.617 212.456 214.69 213.666C214.725 214.232 214.755 214.694 214.777 215.061C214.774 215.234 214.791 215.407 214.829 215.575Z" fill="#E0E0E0"/>
<path d="M214.513 210.728C214.552 210.244 214.552 209.757 214.513 209.272C214.457 208.335 214.332 206.983 214.081 205.328C213.758 203.39 213.325 201.472 212.785 199.583C212.163 197.258 211.362 194.985 210.392 192.783C208.4 188.031 205.692 184.186 203.337 181.793C202.816 181.246 202.262 180.731 201.679 180.251C201.424 180.035 201.195 179.819 200.966 179.65L200.322 179.218C199.935 178.927 199.526 178.666 199.1 178.436C199.026 178.531 200.828 179.594 203.113 182.018C206.001 185.248 208.316 188.947 209.96 192.956C210.914 195.145 211.722 197.395 212.379 199.691C213.01 201.803 213.425 203.743 213.744 205.38C214.064 207.017 214.215 208.361 214.323 209.268C214.349 209.759 214.412 210.247 214.513 210.728Z" fill="#E0E0E0"/>
<path d="M203.705 224.392L204.858 240.238H225.214L226.372 224.392H203.705Z" fill="#E0E0E0"/>
<path d="M228.8 218.146H201.739V224.392H228.8V218.146Z" fill="#E0E0E0"/>
<path d="M201.739 239.629V241.361H203.009H228.355V239.629H201.739Z" fill="#EBEBEB"/>
<path d="M204.258 244.407L203.009 241.361H227.383L225.931 244.407H204.258Z" fill="#E0E0E0"/>
<path d="M225.992 229.572C225.992 229.572 225.966 229.624 225.901 229.715L225.594 230.121L224.41 231.637L224.354 231.706L224.307 231.633L221.391 227.607H221.559L218.691 231.667L218.6 231.784L218.501 231.663L215.101 227.619H215.295L215.109 227.853L212.085 231.667L211.982 231.793L211.891 231.663L209.018 227.602H209.187L205.64 231.641L205.575 231.711L205.528 231.633L204.422 229.771C204.305 229.572 204.214 229.408 204.137 229.278C204.102 229.223 204.073 229.163 204.05 229.101C204.05 229.101 204.098 229.153 204.171 229.257L204.487 229.736L205.644 231.559H205.536C206.439 230.497 207.623 229.114 209.014 227.486L209.1 227.382L209.178 227.49L212.077 231.533H211.878L214.902 227.715C214.967 227.632 215.032 227.555 215.088 227.477L215.187 227.356L215.287 227.477L218.678 231.533H218.488C219.533 230.073 220.509 228.717 221.382 227.494L221.468 227.373L221.551 227.494C222.7 229.131 223.672 230.518 224.402 231.568H224.298L225.534 230.091L225.862 229.706C225.944 229.624 225.987 229.568 225.992 229.572Z" fill="#F5F5F5"/>
<path d="M226.657 224.289C226.657 224.358 221.555 224.414 215.265 224.414C208.975 224.414 203.873 224.358 203.873 224.289C203.873 224.22 208.971 224.159 215.265 224.159C221.559 224.159 226.657 224.215 226.657 224.289Z" fill="#F5F5F5"/>
<path d="M227.672 241.53C227.672 241.603 222.125 241.66 215.291 241.66C208.457 241.66 202.91 241.603 202.91 241.53C202.91 241.457 208.452 241.405 215.291 241.405C222.129 241.405 227.672 241.461 227.672 241.53Z" fill="#F5F5F5"/>
<path d="M52.6688 225.455V244.269H80.1829H110.531V225.455H52.6688Z" fill="#F5F5F5"/>
<path d="M50.241 220.198V225.455H112.553V220.198H80.1829H50.241Z" fill="#E0E0E0"/>
<path d="M81.3968 244.269H110.531V225.455H112.553V220.198H80.1829V224.971L81.3968 244.269Z" fill="#E0E0E0"/>
<path d="M72.4933 228.492H60.7602V231.326H72.4933V228.492Z" fill="#E0E0E0"/>
<path d="M74.3206 234.864H59.2525V240.843H74.3206V234.864Z" fill="white"/>
<path d="M61.5723 201.406V220.219H89.0821H119.43V201.406H61.5723Z" fill="#F5F5F5"/>
<path d="M59.1445 196.144V201.406H121.456V196.144H89.0821H59.1445Z" fill="#E0E0E0"/>
<path d="M90.296 220.219H119.43V201.406H121.456V196.144H89.0821V200.918L90.296 220.219Z" fill="#E0E0E0"/>
<path d="M81.3968 204.438H69.6637V207.272H81.3968V204.438Z" fill="#E0E0E0"/>
<path d="M83.2198 210.815H68.1517V216.794H83.2198V210.815Z" fill="white"/>
<path d="M241.008 244.407C241.008 244.472 197.125 244.519 143.004 244.519C88.8834 244.519 44.9922 244.472 44.9922 244.407C44.9922 244.342 88.8661 244.312 143 244.312C197.134 244.312 241.008 244.347 241.008 244.407Z" fill="#263238"/>
<path d="M121.249 211.229L70.7048 211.203C67.8102 211.228 65.0246 210.101 62.9604 208.072C60.8962 206.042 59.7225 203.276 59.6974 200.382V75.8924C59.7282 72.9994 60.9062 70.2368 62.9725 68.2118C65.0389 66.1867 67.8246 65.0648 70.7177 65.0924L121.262 65.1227C127.344 65.1227 132.269 69.9697 131.85 75.9227L131.824 200.412C132.265 206.391 127.331 211.234 121.249 211.229Z" fill="#263238"/>
<path d="M121.309 68.6696H111.507C110.862 68.6843 110.248 68.9546 109.802 69.4212C109.356 69.8877 109.113 70.5124 109.127 71.1579V72.9334C109.135 73.5752 108.89 74.1943 108.444 74.6561C107.998 75.118 107.388 75.3854 106.747 75.4001H87.6392C87.3198 75.3928 87.0049 75.3227 86.7126 75.1937C86.4203 75.0646 86.1563 74.8793 85.9356 74.6482C85.715 74.4171 85.542 74.1449 85.4267 73.8469C85.3113 73.549 85.2557 73.2312 85.2632 72.9118V71.1363C85.2771 70.4908 85.0342 69.8661 84.5879 69.3996C84.1416 68.933 83.5283 68.6627 82.8829 68.648H70.856C68.8104 68.6468 66.8482 69.458 65.4005 70.9032C63.9529 72.3484 63.1384 74.3093 63.1361 76.3548V200.067C63.1356 201.079 63.3345 202.082 63.7215 203.018C64.1085 203.954 64.676 204.804 65.3916 205.521C66.1073 206.237 66.9571 206.806 67.8924 207.194C68.8278 207.582 69.8304 207.782 70.843 207.782L121.301 207.812C123.346 207.812 125.308 207 126.755 205.554C128.202 204.108 129.015 202.147 129.016 200.101L129.042 76.3851C129.042 75.3704 128.842 74.3657 128.453 73.4285C128.064 72.4913 127.494 71.6399 126.776 70.9233C126.058 70.2066 125.205 69.6386 124.267 69.2519C123.329 68.8652 122.324 68.6673 121.309 68.6696Z" fill="#FF725E"/>
<path d="M124.195 82.9124C124.195 82.947 122.834 82.9859 121.171 82.9988C119.508 83.0118 118.147 82.9988 118.147 82.96C118.147 82.9211 119.508 82.8865 121.171 82.8736C122.834 82.8606 124.195 82.8779 124.195 82.9124Z" fill="white"/>
<path d="M124.208 84.472C124.208 84.5066 122.847 84.5455 121.184 84.5584C119.521 84.5714 118.16 84.5584 118.16 84.5195C118.16 84.4807 119.521 84.4461 121.184 84.4331C122.847 84.4202 124.208 84.4288 124.208 84.472Z" fill="white"/>
<path d="M124.221 86.0227C124.221 86.0573 122.86 86.0962 121.197 86.1091C119.534 86.1221 118.173 86.1091 118.173 86.0703C118.173 86.0314 119.534 85.9968 121.197 85.9839C122.86 85.9709 124.221 85.9839 124.221 86.0227Z" fill="white"/>
<path d="M68.9379 87.8459H69.0675H69.4174L70.7134 87.8114L70.6789 87.8502C70.6789 87.5608 70.6789 87.2454 70.6789 86.9085C70.6789 86.7357 70.6789 86.5672 70.6789 86.3685C70.6991 86.2644 70.7519 86.1695 70.8295 86.0973C70.9071 86.0251 71.0056 85.9794 71.1109 85.9667C71.3182 85.9667 71.504 85.9667 71.7286 85.9667C71.8485 85.9852 71.9578 86.0458 72.037 86.1377C72.1162 86.2295 72.16 86.3466 72.1606 86.4678C72.1606 86.9085 72.1606 87.3664 72.1606 87.8416L72.1002 87.7811H73.7374L73.677 87.8459C73.677 87.185 73.677 86.5067 73.677 85.8069C73.677 85.6341 73.677 85.4613 73.677 85.2885C73.6683 85.2107 73.643 85.1357 73.6027 85.0686C73.5625 85.0015 73.5082 84.9439 73.4437 84.8997L72.7309 84.1955L72.0397 83.513L71.7027 83.1846C71.6164 83.0699 71.4997 82.9816 71.3658 82.9298C71.3017 82.9123 71.2344 82.9098 71.1693 82.9226C71.1041 82.9353 71.0427 82.9629 70.9899 83.0032C70.8906 83.0853 70.7869 83.2062 70.6875 83.3013L70.0784 83.8542C69.7069 84.2387 69.3224 84.5886 69.0416 84.9213C68.9603 85.1133 68.9319 85.3237 68.9595 85.5304V86.1093C68.9595 86.4635 68.9595 86.7746 68.9595 87.0381C68.9595 87.3016 68.9595 87.4701 68.9595 87.6342C68.9656 87.7047 68.9656 87.7755 68.9595 87.8459C68.9595 87.8459 68.9595 87.7811 68.9595 87.6515C68.9595 87.5219 68.9595 87.2973 68.9595 87.064C68.9595 86.8307 68.9595 86.4851 68.9595 86.1266C68.9595 85.9451 68.9595 85.7464 68.9595 85.539C68.9595 85.4354 68.9595 85.3274 68.9595 85.2194C68.9593 85.0996 68.9906 84.9819 69.0502 84.8781C69.3526 84.5066 69.7155 84.1782 70.087 83.7808L70.5838 83.176C70.6836 83.067 70.7888 82.9632 70.8992 82.865C70.9658 82.8138 71.0433 82.7786 71.1257 82.7621C71.2081 82.7456 71.2932 82.7483 71.3744 82.7699C71.5289 82.8253 71.665 82.9225 71.7675 83.0507L72.1045 83.379L72.7957 84.0573L73.5128 84.7614C73.5796 84.8216 73.6404 84.8882 73.6942 84.9602C73.7503 85.0414 73.7805 85.1379 73.7806 85.2366C73.7806 85.4094 73.7806 85.5822 73.7806 85.7594C73.7806 86.4549 73.7806 87.1374 73.7806 87.7984V87.8589H73.7158H72.0829H72.0224V87.7984C72.0224 87.3232 72.0224 86.8653 72.0224 86.429C72.0255 86.3334 71.9933 86.24 71.932 86.1667C71.8706 86.0934 71.7844 86.0453 71.6898 86.0315C71.504 86.0315 71.2794 86.0315 71.0979 86.0315C71.0127 86.0406 70.9325 86.0764 70.8689 86.1338C70.8053 86.1913 70.7614 86.2673 70.7437 86.3512C70.7437 86.5154 70.7437 86.7054 70.7437 86.8739V87.8502H70.7048H69.4088H69.0632L68.9379 87.8459Z" fill="white"/>
<path d="M97.1261 190.265C102.315 190.265 106.522 186.058 106.522 180.869C106.522 175.679 102.315 171.473 97.1261 171.473C91.9368 171.473 87.7301 175.679 87.7301 180.869C87.7301 186.058 91.9368 190.265 97.1261 190.265Z" fill="white"/>
<path d="M91.3632 183.028L93.709 182.475C93.8495 182.443 93.9748 182.364 94.0643 182.251C94.1538 182.138 94.2022 181.998 94.2014 181.853V181.37C94.2014 181.37 94.1021 180.549 94.8797 180.506C95.4326 180.467 98.9621 180.506 98.9621 180.506C98.9621 180.506 99.8909 180.506 99.8779 181.218V181.922C99.8781 182.04 99.916 182.155 99.9859 182.25C100.056 182.345 100.154 182.415 100.267 182.45L102.811 183.218C102.941 183.258 103.082 183.247 103.205 183.189C103.328 183.131 103.424 183.029 103.476 182.903L103.8 182.117C103.862 181.974 103.89 181.819 103.883 181.663C103.858 181.238 103.707 180.829 103.451 180.488C102.945 179.84 100.565 178.328 96.0288 178.531C91.7088 178.739 90.767 180.562 90.5208 180.998C90.3563 181.382 90.3273 181.81 90.4387 182.212L90.6288 182.644C90.6856 182.785 90.7907 182.901 90.9253 182.971C91.0598 183.042 91.2151 183.062 91.3632 183.028Z" fill="#FF725E"/>
<g opacity="0.2">
<path d="M99.1261 157.268C102.722 157.268 105.636 154.354 105.636 150.758C105.636 147.163 102.722 144.248 99.1261 144.248C95.5306 144.248 92.6158 147.163 92.6158 150.758C92.6158 154.354 95.5306 157.268 99.1261 157.268Z" fill="white"/>
</g>
<path d="M97.3463 151.523C97.7638 151.523 98.1023 151.184 98.1023 150.767C98.1023 150.349 97.7638 150.011 97.3463 150.011C96.9287 150.011 96.5903 150.349 96.5903 150.767C96.5903 151.184 96.9287 151.523 97.3463 151.523Z" fill="white"/>
<path d="M99.8821 150.767C99.8821 150.916 99.8377 151.062 99.7547 151.187C99.6716 151.311 99.5535 151.408 99.4154 151.465C99.2772 151.522 99.1252 151.537 98.9786 151.508C98.8319 151.479 98.6972 151.407 98.5915 151.301C98.4858 151.196 98.4138 151.061 98.3846 150.914C98.3554 150.768 98.3704 150.616 98.4276 150.477C98.4848 150.339 98.5817 150.221 98.7061 150.138C98.8304 150.055 98.9765 150.011 99.1261 150.011C99.3266 150.011 99.5189 150.09 99.6606 150.232C99.8024 150.374 99.8821 150.566 99.8821 150.767Z" fill="white"/>
<path d="M101.662 150.767C101.663 150.917 101.619 151.065 101.536 151.191C101.452 151.316 101.334 151.415 101.195 151.473C101.055 151.531 100.902 151.546 100.754 151.517C100.606 151.488 100.471 151.415 100.364 151.309C100.257 151.202 100.185 151.066 100.156 150.918C100.126 150.77 100.142 150.617 100.2 150.478C100.258 150.339 100.356 150.22 100.482 150.137C100.608 150.054 100.755 150.01 100.906 150.011C101.106 150.011 101.299 150.09 101.44 150.232C101.582 150.374 101.662 150.566 101.662 150.767Z" fill="white"/>
<path d="M98.1022 148.961C98.1014 149.11 98.0563 149.256 97.9727 149.38C97.8891 149.503 97.7708 149.6 97.6326 149.656C97.4944 149.713 97.3425 149.727 97.1961 149.698C97.0498 149.668 96.9155 149.596 96.8102 149.49C96.7049 149.384 96.6333 149.249 96.6045 149.102C96.5756 148.956 96.5909 148.804 96.6482 148.666C96.7056 148.528 96.8025 148.411 96.9267 148.328C97.0509 148.245 97.1969 148.201 97.3462 148.201C97.4459 148.201 97.5445 148.22 97.6366 148.259C97.7286 148.297 97.8121 148.353 97.8823 148.424C97.9526 148.494 98.0082 148.578 98.0459 148.67C98.0837 148.762 98.1028 148.861 98.1022 148.961Z" fill="white"/>
<path d="M99.8821 148.961C99.8812 149.11 99.8361 149.256 99.7526 149.38C99.669 149.503 99.5506 149.6 99.4124 149.656C99.2742 149.713 99.1223 149.727 98.9759 149.698C98.8296 149.668 98.6953 149.596 98.59 149.49C98.4847 149.384 98.4131 149.249 98.3843 149.102C98.3555 148.956 98.3707 148.804 98.428 148.666C98.4854 148.528 98.5823 148.411 98.7065 148.328C98.8307 148.245 98.9767 148.201 99.1261 148.201C99.2257 148.201 99.3244 148.22 99.4164 148.259C99.5084 148.297 99.5919 148.353 99.6622 148.424C99.7324 148.494 99.788 148.578 99.8258 148.67C99.8635 148.762 99.8826 148.861 99.8821 148.961Z" fill="white"/>
<path d="M101.662 148.961C101.662 149.111 101.617 149.259 101.533 149.384C101.45 149.509 101.331 149.606 101.192 149.664C101.052 149.721 100.899 149.736 100.752 149.706C100.604 149.677 100.469 149.604 100.362 149.497C100.256 149.39 100.184 149.254 100.155 149.107C100.127 148.959 100.142 148.806 100.2 148.667C100.259 148.528 100.357 148.41 100.482 148.327C100.608 148.244 100.755 148.2 100.906 148.201C101.006 148.201 101.104 148.22 101.196 148.259C101.288 148.297 101.372 148.353 101.442 148.424C101.512 148.494 101.568 148.578 101.606 148.67C101.643 148.762 101.663 148.861 101.662 148.961Z" fill="white"/>
<path d="M98.1022 152.555C98.1022 152.705 98.0579 152.851 97.9748 152.975C97.8918 153.1 97.7737 153.196 97.6356 153.254C97.4974 153.311 97.3454 153.326 97.1988 153.297C97.0521 153.267 96.9174 153.195 96.8117 153.09C96.7059 152.984 96.6339 152.849 96.6048 152.703C96.5756 152.556 96.5906 152.404 96.6478 152.266C96.705 152.128 96.8019 152.01 96.9262 151.927C97.0506 151.844 97.1967 151.799 97.3462 151.799C97.5467 151.799 97.739 151.879 97.8808 152.021C98.0226 152.162 98.1022 152.355 98.1022 152.555Z" fill="white"/>
<path d="M99.8821 152.555C99.8821 152.705 99.8377 152.851 99.7547 152.975C99.6716 153.1 99.5535 153.196 99.4154 153.254C99.2772 153.311 99.1252 153.326 98.9786 153.297C98.8319 153.267 98.6972 153.195 98.5915 153.09C98.4858 152.984 98.4138 152.849 98.3846 152.703C98.3554 152.556 98.3704 152.404 98.4276 152.266C98.4848 152.128 98.5817 152.01 98.7061 151.927C98.8304 151.844 98.9765 151.799 99.1261 151.799C99.3266 151.799 99.5189 151.879 99.6606 152.021C99.8024 152.162 99.8821 152.355 99.8821 152.555Z" fill="white"/>
<path d="M101.662 152.555C101.663 152.706 101.619 152.854 101.536 152.979C101.452 153.105 101.334 153.203 101.195 153.261C101.055 153.319 100.902 153.335 100.754 153.305C100.606 153.276 100.471 153.204 100.364 153.097C100.257 152.991 100.185 152.855 100.156 152.707C100.126 152.559 100.142 152.406 100.2 152.267C100.258 152.127 100.356 152.009 100.482 151.926C100.608 151.842 100.755 151.798 100.906 151.799C101.106 151.799 101.299 151.879 101.44 152.021C101.582 152.162 101.662 152.355 101.662 152.555Z" fill="white"/>
<g opacity="0.2">
<path d="M80.4378 157.268C84.0333 157.268 86.948 154.354 86.948 150.758C86.948 147.163 84.0333 144.248 80.4378 144.248C76.8423 144.248 73.9275 147.163 73.9275 150.758C73.9275 154.354 76.8423 157.268 80.4378 157.268Z" fill="white"/>
</g>
<path d="M77.3835 149.907V151.432C77.3835 151.463 77.3958 151.493 77.4177 151.515C77.4395 151.536 77.4692 151.549 77.5001 151.549H78.3641C78.3909 151.549 78.4168 151.558 78.4376 151.575L79.7638 152.611C79.7812 152.626 79.8024 152.634 79.8246 152.637C79.8469 152.639 79.8695 152.635 79.8895 152.625C79.9096 152.615 79.9263 152.6 79.9377 152.58C79.9492 152.561 79.9548 152.539 79.9539 152.516V148.918C79.9549 148.896 79.9497 148.874 79.9388 148.855C79.928 148.836 79.9119 148.82 79.8924 148.809C79.873 148.799 79.851 148.794 79.829 148.796C79.807 148.798 79.7859 148.805 79.7681 148.818L78.4721 149.743C78.4514 149.756 78.4275 149.763 78.403 149.765H77.5001C77.4826 149.765 77.4654 149.769 77.4497 149.777C77.4339 149.784 77.42 149.795 77.4089 149.809C77.3978 149.822 77.3898 149.838 77.3854 149.855C77.381 149.872 77.3804 149.89 77.3835 149.907Z" fill="white"/>
<path d="M82.4077 153.359C82.3708 153.359 82.3352 153.345 82.3083 153.32C82.2809 153.292 82.2655 153.255 82.2655 153.216C82.2655 153.177 82.2809 153.14 82.3083 153.112C82.6423 152.779 82.9058 152.382 83.0832 151.945C83.2606 151.508 83.3482 151.04 83.3408 150.568C83.265 149.748 82.8988 148.982 82.3083 148.408C82.2905 148.396 82.2755 148.38 82.2643 148.362C82.2531 148.343 82.2459 148.323 82.2432 148.302C82.2405 148.28 82.2424 148.259 82.2487 148.238C82.2551 148.218 82.2657 148.199 82.28 148.183C82.2942 148.167 82.3117 148.154 82.3313 148.145C82.3509 148.136 82.3722 148.132 82.3936 148.132C82.4151 148.132 82.4364 148.136 82.4559 148.145C82.4755 148.154 82.4929 148.167 82.507 148.183C83.1604 148.806 83.563 149.647 83.6389 150.546C83.6467 151.057 83.5517 151.565 83.3595 152.038C83.1673 152.512 82.8818 152.942 82.52 153.302C82.4915 153.335 82.4511 153.356 82.4077 153.359Z" fill="white"/>
<path d="M81.5869 152.633C81.5666 152.633 81.5465 152.629 81.5279 152.62C81.5093 152.612 81.4926 152.6 81.4789 152.585C81.4512 152.557 81.4357 152.519 81.4357 152.48C81.4357 152.44 81.4512 152.402 81.4789 152.374C81.7171 152.18 81.9112 151.937 82.0483 151.662C82.1854 151.388 82.2622 151.087 82.2738 150.78C82.2279 150.126 81.9453 149.512 81.4789 149.052C81.4512 149.023 81.4357 148.985 81.4357 148.946C81.4357 148.906 81.4512 148.868 81.4789 148.84C81.5064 148.813 81.5437 148.797 81.5826 148.797C81.6214 148.797 81.6587 148.813 81.6862 148.84C82.2165 149.355 82.534 150.05 82.5762 150.788C82.5649 151.137 82.4797 151.478 82.3263 151.791C82.1729 152.104 81.9547 152.381 81.6862 152.603C81.6727 152.614 81.6568 152.623 81.6397 152.628C81.6226 152.633 81.6046 152.635 81.5869 152.633Z" fill="white"/>
<path d="M80.8568 151.864C80.8182 151.863 80.7813 151.847 80.7531 151.821C80.7389 151.807 80.7276 151.791 80.7198 151.772C80.7121 151.754 80.7081 151.735 80.7081 151.715C80.7081 151.695 80.7121 151.676 80.7198 151.657C80.7276 151.639 80.7389 151.623 80.7531 151.609C81.669 150.702 80.7834 149.674 80.7531 149.631C80.7264 149.602 80.7116 149.564 80.7116 149.525C80.7116 149.485 80.7264 149.448 80.7531 149.419C80.7814 149.391 80.8194 149.376 80.859 149.376C80.8985 149.376 80.9365 149.391 80.9648 149.419C80.9648 149.419 82.075 150.715 80.9648 151.808C80.9517 151.824 80.9353 151.838 80.9167 151.847C80.8981 151.857 80.8777 151.863 80.8568 151.864Z" fill="white"/>
<g opacity="0.2">
<path d="M116.212 157.268C119.807 157.268 122.722 154.354 122.722 150.758C122.722 147.163 119.807 144.248 116.212 144.248C112.616 144.248 109.701 147.163 109.701 150.758C109.701 154.354 112.616 157.268 116.212 157.268Z" fill="white"/>
</g>
<path d="M116.255 153.009C116.202 153.009 116.151 152.988 116.113 152.951C116.075 152.914 116.053 152.863 116.052 152.81V148.706C116.059 148.658 116.083 148.614 116.12 148.582C116.157 148.55 116.204 148.533 116.253 148.533C116.301 148.533 116.349 148.55 116.385 148.582C116.422 148.614 116.447 148.658 116.454 148.706V152.81C116.453 152.862 116.431 152.912 116.394 152.949C116.357 152.986 116.307 153.008 116.255 153.009Z" fill="white"/>
<path d="M118.203 150.957H114.224C114.171 150.957 114.12 150.936 114.082 150.899C114.044 150.862 114.023 150.811 114.021 150.758C114.021 150.732 114.027 150.705 114.037 150.681C114.047 150.657 114.062 150.635 114.081 150.616C114.1 150.598 114.122 150.583 114.147 150.573C114.172 150.564 114.198 150.559 114.224 150.559H118.203C118.229 150.559 118.256 150.564 118.28 150.573C118.304 150.583 118.326 150.598 118.345 150.616C118.364 150.635 118.378 150.657 118.388 150.681C118.398 150.706 118.403 150.732 118.402 150.758C118.402 150.811 118.381 150.861 118.344 150.899C118.306 150.936 118.256 150.957 118.203 150.957Z" fill="white"/>
<path d="M76.7787 135.975V136.744H73.988V133.288H76.7139V134.048H74.96V134.636H76.5066V135.37H74.96V136.005L76.7787 135.975Z" fill="white"/>
<path d="M80.468 136.744V134.899L79.5738 136.403H79.1418L78.2518 134.951V136.744H77.336V133.288H78.1438L79.3664 135.297L80.5587 133.288H81.3709V136.744H80.468Z" fill="white"/>
<path d="M84.8614 135.975V136.744H82.088V133.288H84.8182V134.048H83.0643V134.636H84.6065V135.37H83.0643V136.005L84.8614 135.975Z" fill="white"/>
<path d="M86.9264 135.811H86.408V136.744H85.423V133.288H87.0128C87.2943 133.281 87.574 133.334 87.8336 133.444C88.0506 133.532 88.2369 133.682 88.3693 133.876C88.4984 134.079 88.5645 134.317 88.5594 134.558C88.5641 134.789 88.5026 135.017 88.3822 135.215C88.26 135.405 88.0842 135.556 87.8768 135.647L88.6112 136.744H87.5571L86.9264 135.811ZM87.393 134.169C87.2627 134.068 87.0995 134.019 86.935 134.031H86.408V135.051H86.9523C87.1155 135.063 87.2777 135.017 87.4102 134.921C87.4628 134.874 87.5042 134.816 87.5311 134.751C87.558 134.686 87.5699 134.615 87.5658 134.545C87.5709 134.471 87.5579 134.396 87.5278 134.327C87.4977 134.259 87.4514 134.199 87.393 134.152V134.169Z" fill="white"/>
<path d="M91.4149 134.921H92.2789V136.364C92.0698 136.511 91.8376 136.622 91.592 136.692C91.3408 136.766 91.0805 136.803 90.8187 136.804C90.4768 136.809 90.1388 136.73 89.8338 136.575C89.5506 136.427 89.3131 136.205 89.1469 135.932C88.9856 135.646 88.9009 135.324 88.9009 134.997C88.9009 134.669 88.9856 134.347 89.1469 134.061C89.3149 133.788 89.5538 133.566 89.8381 133.418C90.1489 133.262 90.4927 133.183 90.8403 133.189C91.1363 133.186 91.43 133.242 91.7043 133.353C91.9548 133.456 92.177 133.617 92.3523 133.824L91.7259 134.39C91.6193 134.266 91.4865 134.167 91.3371 134.1C91.1877 134.034 91.0254 134.001 90.8619 134.005C90.729 133.995 90.5955 134.015 90.4706 134.061C90.3456 134.108 90.2322 134.18 90.1379 134.275C90.0437 134.369 89.9708 134.482 89.9243 134.607C89.8778 134.732 89.8587 134.866 89.8683 134.999C89.8663 135.178 89.9093 135.355 89.9936 135.513C90.0725 135.66 90.1925 135.782 90.3392 135.863C90.496 135.951 90.6734 135.996 90.8533 135.992C91.0369 135.993 91.2183 135.953 91.3846 135.876L91.4149 134.921Z" fill="white"/>
<path d="M95.7003 135.975V136.744H92.9096V133.288H95.6398V134.048H93.8816V134.636H95.4282V135.37H93.8816V136.005L95.7003 135.975Z" fill="white"/>
<path d="M99.5581 133.258V136.714H98.7502L97.208 134.882V136.744H96.2446V133.288H97.0525L98.5904 135.141V133.288L99.5581 133.258Z" fill="white"/>
<path d="M101.005 136.576C100.723 136.428 100.487 136.205 100.323 135.932C100.195 135.724 100.111 135.492 100.076 135.25C100.042 135.009 100.057 134.763 100.121 134.527C100.185 134.292 100.296 134.072 100.448 133.881C100.6 133.69 100.79 133.532 101.005 133.418C101.309 133.263 101.645 133.184 101.986 133.189C102.282 133.185 102.577 133.242 102.85 133.357C103.098 133.465 103.317 133.633 103.485 133.845L102.859 134.411C102.762 134.285 102.638 134.182 102.496 134.112C102.353 134.041 102.197 134.005 102.038 134.005C101.862 134.001 101.688 134.043 101.532 134.126C101.388 134.208 101.27 134.33 101.191 134.476C101.111 134.638 101.07 134.816 101.07 134.997C101.07 135.177 101.111 135.355 101.191 135.517C101.269 135.664 101.387 135.786 101.532 135.867C101.687 135.952 101.861 135.995 102.038 135.992C102.197 135.992 102.354 135.955 102.496 135.883C102.639 135.812 102.763 135.709 102.859 135.582L103.485 136.148C103.318 136.361 103.099 136.529 102.85 136.636C102.577 136.751 102.282 136.808 101.986 136.805C101.645 136.809 101.309 136.731 101.005 136.576Z" fill="white"/>
<path d="M105.77 135.487V136.744H104.785V135.483L103.459 133.266H104.496L105.321 134.649L106.146 133.266H107.101L105.77 135.487Z" fill="white"/>
<path d="M109.55 136.576C109.266 136.429 109.028 136.206 108.863 135.932C108.702 135.647 108.617 135.324 108.617 134.997C108.617 134.669 108.702 134.347 108.863 134.061C109.03 133.788 109.267 133.566 109.55 133.418C109.853 133.262 110.19 133.183 110.531 133.189C110.827 133.184 111.122 133.241 111.395 133.357C111.643 133.465 111.862 133.633 112.03 133.845L111.404 134.411C111.308 134.284 111.184 134.182 111.041 134.111C110.899 134.041 110.742 134.004 110.583 134.005C110.407 134.002 110.233 134.044 110.077 134.126C109.933 134.208 109.815 134.33 109.736 134.476C109.656 134.638 109.615 134.816 109.615 134.997C109.615 135.177 109.656 135.355 109.736 135.517C109.814 135.664 109.932 135.786 110.077 135.867C110.232 135.951 110.406 135.994 110.583 135.992C110.742 135.992 110.899 135.955 111.041 135.884C111.184 135.813 111.308 135.709 111.404 135.582L112.03 136.148C111.863 136.361 111.644 136.529 111.395 136.636C111.122 136.752 110.827 136.809 110.531 136.804C110.19 136.81 109.853 136.731 109.55 136.576Z" fill="white"/>
<path d="M114.734 136.061H113.261L112.989 136.735H111.987L113.52 133.279H114.488L116.03 136.735H115.006L114.734 136.061ZM114.445 135.336L114.013 134.221L113.581 135.336H114.445Z" fill="white"/>
<path d="M116.307 133.258H117.292V135.958H118.951V136.744H116.307V133.258Z" fill="white"/>
<path d="M119.339 133.258H120.324V135.958H121.983V136.744H119.339V133.258Z" fill="white"/>
<path d="M76.4413 113.59V109.079H83.9922V127H78.9664V113.59H76.4413ZM86.4369 117.782C86.4369 114.971 87.0089 112.756 88.153 111.138C89.2971 109.52 91.0949 108.711 93.5465 108.711C95.9981 108.711 97.796 109.52 98.94 111.138C100.1 112.756 100.681 114.971 100.681 117.782C100.681 120.626 100.109 122.857 98.9646 124.475C97.8205 126.093 96.0145 126.902 93.5465 126.902C91.0786 126.902 89.2726 126.093 88.1285 124.475C87.0008 122.857 86.4369 120.626 86.4369 117.782ZM95.9246 117.782C95.9246 116.311 95.7693 115.191 95.4588 114.423C95.1482 113.639 94.5108 113.247 93.5465 113.247C92.5822 113.247 91.9448 113.639 91.6343 114.423C91.3238 115.191 91.1685 116.311 91.1685 117.782C91.1685 119.286 91.3156 120.43 91.6098 121.214C91.9203 121.982 92.5659 122.366 93.5465 122.366C94.5272 122.366 95.1646 121.982 95.4588 121.214C95.7693 120.43 95.9246 119.286 95.9246 117.782ZM102.549 117.782C102.549 114.971 103.121 112.756 104.266 111.138C105.41 109.52 107.207 108.711 109.659 108.711C112.111 108.711 113.909 109.52 115.053 111.138C116.213 112.756 116.793 114.971 116.793 117.782C116.793 120.626 116.221 122.857 115.077 124.475C113.933 126.093 112.127 126.902 109.659 126.902C107.191 126.902 105.385 126.093 104.241 124.475C103.113 122.857 102.549 120.626 102.549 117.782ZM112.037 117.782C112.037 116.311 111.882 115.191 111.571 114.423C111.261 113.639 110.623 113.247 109.659 113.247C108.695 113.247 108.057 113.639 107.747 114.423C107.436 115.191 107.281 116.311 107.281 117.782C107.281 119.286 107.428 120.43 107.722 121.214C108.033 121.982 108.678 122.366 109.659 122.366C110.64 122.366 111.277 121.982 111.571 121.214C111.882 120.43 112.037 119.286 112.037 117.782Z" fill="white"/>
<path d="M209.982 79.8842L201.221 73.4647L200.102 84.0444L188.96 85.2108L197.518 93.7644L190.969 100.007L200.244 100.689L201.32 109.014L208.66 102.815L218.604 109.014L221.382 98.754L232.364 97.2117L222.739 90.3645L227.927 81.2493L219.572 83.1588L217.222 71.9484L209.982 79.8842Z" fill="white"/>
<path d="M209.982 79.8843L210.457 79.3443C210.776 78.9943 211.243 78.4803 211.852 77.7977L217.183 71.9139L217.256 71.8318L217.278 71.9398C217.926 75.0113 218.73 78.8043 219.645 83.1459L219.555 83.0854L227.91 81.163L228.1 81.1198L228.005 81.2926L222.821 90.4121L222.79 90.2868L232.424 97.1254L232.636 97.2766L232.376 97.3155L221.399 98.862L221.49 98.7843L218.712 109.044L218.673 109.191L218.544 109.109L210.876 104.344L208.599 102.927H208.733L201.389 109.126L201.234 109.256L201.208 109.053C200.839 106.228 200.48 103.453 200.132 100.728L200.231 100.823L190.952 100.111H190.714L190.887 99.9464L197.432 93.6953V93.8379L188.9 85.2756L188.766 85.1417H188.952L200.093 83.9883L200.024 84.0401C200.456 79.9015 200.849 76.3851 201.164 73.4561V73.3654L201.238 73.4215L207.718 78.2081L209.394 79.4523L209.964 79.8843C209.964 79.8843 209.774 79.7547 209.394 79.4825L207.709 78.2643L201.169 73.5123L201.255 73.4734C200.953 76.4023 200.586 79.9188 200.158 84.0574V84.1179H200.097L188.965 85.2972L189.017 85.146L197.579 93.691L197.652 93.7644L197.575 93.8335L191.034 100.08L190.969 99.8988L200.244 100.577H200.331V100.668C200.682 103.387 201.042 106.161 201.411 108.992L201.229 108.919L208.573 102.72L208.638 102.668L208.707 102.711L210.98 104.128L218.652 108.91L218.483 108.975C219.438 105.446 220.376 101.985 221.265 98.7151V98.646H221.339L232.316 97.1081L232.273 97.2982L222.652 90.4423L222.583 90.3905L222.626 90.3171L227.81 81.2062L227.905 81.3358L219.546 83.2366H219.473V83.1588L217.144 71.9268L217.239 71.9527L211.869 77.8539L210.461 79.3745C210.146 79.7201 209.982 79.8843 209.982 79.8843Z" fill="#263238"/>
<path d="M208.586 83.7894L208.007 92.1788C207.983 92.5115 207.837 92.8236 207.599 93.0566C207.36 93.2897 207.044 93.4276 206.711 93.4446C206.363 93.4631 206.021 93.347 205.755 93.1202C205.49 92.8935 205.322 92.5735 205.286 92.2264L204.422 83.7851C204.406 83.6343 204.422 83.4819 204.47 83.338C204.517 83.1941 204.595 83.0619 204.697 82.9503C204.8 82.8387 204.925 82.7503 205.065 82.6909C205.204 82.6314 205.355 82.6024 205.506 82.6057L207.549 82.6446C207.694 82.6489 207.835 82.6823 207.966 82.7427C208.097 82.8031 208.215 82.8894 208.312 82.9963C208.408 83.1032 208.483 83.2285 208.53 83.3648C208.577 83.5011 208.596 83.6455 208.586 83.7894Z" fill="#FF725E"/>
<path d="M204.551 97.3629C204.68 97.7469 204.919 98.0842 205.239 98.3323C205.559 98.5803 205.945 98.728 206.349 98.7565C206.753 98.7851 207.156 98.6933 207.508 98.4927C207.86 98.2921 208.144 97.9918 208.325 97.6297C208.506 97.2676 208.576 96.8599 208.525 96.4582C208.475 96.0565 208.306 95.6788 208.041 95.3729C207.776 95.0669 207.426 94.8464 207.035 94.7393C206.645 94.6321 206.232 94.6431 205.847 94.7709C205.592 94.8553 205.355 94.9895 205.151 95.1656C204.948 95.3418 204.781 95.5565 204.66 95.7974C204.54 96.0383 204.468 96.3006 204.45 96.5692C204.431 96.8379 204.465 97.1076 204.551 97.3629Z" fill="#FF725E"/>
<path d="M215.524 83.7894L214.941 92.1788C214.918 92.5121 214.773 92.8253 214.534 93.0587C214.295 93.2921 213.979 93.4295 213.645 93.4446C213.296 93.4642 212.953 93.3484 212.688 93.1215C212.422 92.8946 212.254 92.5739 212.219 92.2264L211.334 83.7851C211.318 83.6343 211.334 83.4819 211.382 83.338C211.429 83.1941 211.507 83.0619 211.609 82.9503C211.712 82.8387 211.837 82.7503 211.977 82.6909C212.116 82.6314 212.267 82.6024 212.418 82.6057L214.466 82.6446C214.612 82.646 214.756 82.6773 214.889 82.7364C215.023 82.7956 215.143 82.8814 215.242 82.9886C215.341 83.0958 215.417 83.2222 215.466 83.3599C215.514 83.4976 215.534 83.6437 215.524 83.7894Z" fill="#FF725E"/>
<path d="M211.485 97.3629C211.613 97.7469 211.853 98.0842 212.173 98.3323C212.492 98.5803 212.879 98.728 213.283 98.7565C213.687 98.7851 214.09 98.6933 214.441 98.4927C214.793 98.2921 215.078 97.9918 215.259 97.6297C215.44 97.2676 215.509 96.8599 215.459 96.4582C215.408 96.0565 215.24 95.6788 214.974 95.3729C214.709 95.0669 214.359 94.8464 213.969 94.7393C213.579 94.6321 213.165 94.6431 212.781 94.7709C212.266 94.9434 211.84 95.3131 211.597 95.799C211.354 96.2849 211.314 96.8473 211.485 97.3629Z" fill="#FF725E"/>
<path d="M204.387 189.253C204.362 188.85 204.24 188.459 204.032 188.114C203.823 187.768 203.535 187.477 203.191 187.266C192.568 180.233 184.558 164.647 183.751 151.449C183.729 150.697 183.707 149.937 183.681 149.168C183.016 129.326 180.225 106.487 177.793 101.316C172.588 90.3125 157.584 88.9905 157.584 88.9905C136.87 87.5088 133.172 103.428 131.081 117.935C129.785 126.95 124.77 159.156 124.77 159.156L128.575 160.629C133.064 173.896 143.16 184.648 156.288 189.59C160.107 191.029 163.343 191.608 164.859 190.372C170.916 196.519 178.405 201.066 186.654 203.604C190.002 204.62 193.505 205.302 196.987 204.974C199.251 204.762 201.635 204.015 202.983 202.188C203.572 201.396 203.922 200.453 203.993 199.47C204.065 198.486 203.854 197.502 203.386 196.634C202.918 195.766 202.212 195.049 201.351 194.569C200.49 194.088 199.51 193.862 198.525 193.919C199.311 191.37 204.478 192.122 204.387 189.253Z" fill="#263238"/>
<path d="M164.984 150.075C164.984 150.075 172.557 146.823 176.467 146.084C180.377 145.345 207.696 138.308 207.696 138.308L179.5 114.146L185.72 106.577C185.72 106.577 206.664 119.075 221.555 129.041C221.653 129.097 221.747 129.161 221.836 129.231C230.303 135.897 227.339 147.509 218.643 152.966C214.323 155.683 195.315 163.869 191.656 165.662C184.312 169.239 184.42 169.118 184.42 169.118L164.984 150.075Z" fill="#FFBF9D"/>
<path d="M160.34 94.8401L159.044 93.6046L145.039 99.2465C144.06 99.2963 143.137 99.7138 142.453 100.415C141.768 101.117 141.375 102.051 141.35 103.031L141.471 148.659C141.471 151.756 142.071 154.435 143.942 156.901L145.907 159.493C150.392 165.416 159.619 164.928 163.187 158.405C163.401 158.034 163.567 157.638 163.68 157.225C163.77 156.888 163.839 156.547 163.887 156.201C164.319 152.534 164.319 149.35 164.319 149.35C164.57 145.319 164.652 143.665 164.652 143.704C164.652 143.743 173.231 142.714 175.551 131.707C176.705 126.229 176.484 118.695 176.16 111.282C175.702 101.031 168.587 94.8401 160.34 94.8401Z" fill="#FFBF9D"/>
<path d="M159.472 118.6C159.458 118.971 159.298 119.321 159.029 119.576C158.759 119.831 158.4 119.971 158.029 119.965C157.847 119.97 157.666 119.939 157.497 119.873C157.327 119.808 157.173 119.709 157.042 119.582C156.911 119.456 156.807 119.305 156.735 119.137C156.664 118.97 156.626 118.79 156.625 118.609C156.641 118.238 156.8 117.887 157.07 117.632C157.339 117.376 157.697 117.235 158.068 117.239C158.25 117.234 158.432 117.265 158.602 117.331C158.771 117.397 158.926 117.497 159.057 117.623C159.188 117.75 159.292 117.902 159.363 118.07C159.435 118.237 159.472 118.418 159.472 118.6Z" fill="#263238"/>
<path d="M173.37 119.006C173.355 119.378 173.195 119.73 172.925 119.986C172.654 120.241 172.295 120.381 171.922 120.376C171.741 120.38 171.56 120.348 171.391 120.282C171.222 120.216 171.068 120.117 170.938 119.991C170.807 119.865 170.704 119.714 170.632 119.547C170.561 119.38 170.524 119.201 170.523 119.019C170.536 118.647 170.695 118.296 170.965 118.04C171.234 117.784 171.594 117.644 171.966 117.65C172.147 117.644 172.328 117.676 172.498 117.741C172.667 117.807 172.822 117.906 172.953 118.032C173.084 118.159 173.188 118.31 173.26 118.477C173.331 118.644 173.368 118.824 173.37 119.006Z" fill="#263238"/>
<path d="M174.687 114.224C174.501 114.401 173.465 113.55 171.931 113.476C170.397 113.403 169.24 114.111 169.084 113.908C169.006 113.822 169.201 113.476 169.711 113.161C170.396 112.737 171.196 112.534 172 112.582C172.796 112.619 173.561 112.908 174.182 113.407C174.635 113.8 174.778 114.146 174.687 114.224Z" fill="#263238"/>
<path d="M159.144 114.384C158.941 114.539 157.995 113.585 156.478 113.356C154.962 113.127 153.735 113.714 153.601 113.503C153.532 113.407 153.757 113.101 154.301 112.824C155.026 112.472 155.842 112.351 156.638 112.479C157.428 112.597 158.159 112.965 158.725 113.528C159.135 113.956 159.243 114.315 159.144 114.384Z" fill="#263238"/>
<path d="M164.496 125.533C164.496 125.443 165.451 125.326 167.006 125.209C167.399 125.188 167.771 125.127 167.87 124.864C167.921 124.462 167.85 124.054 167.667 123.693L166.661 120.669C165.265 116.349 164.276 112.802 164.453 112.751C164.63 112.699 165.896 116.15 167.291 120.475C167.623 121.537 167.942 122.554 168.25 123.525C168.376 123.957 168.605 124.492 168.376 125.071C168.311 125.206 168.217 125.325 168.1 125.418C167.984 125.512 167.847 125.578 167.702 125.611C167.482 125.658 167.257 125.676 167.032 125.667C165.464 125.659 164.496 125.62 164.496 125.533Z" fill="#263238"/>
<path d="M164.643 143.712C159.414 143.528 154.338 141.896 149.981 138.999C149.981 138.999 153.333 146.87 164.492 146.391L164.643 143.712Z" fill="#FF9A6C"/>
<path d="M153.739 108.418C153.796 107.986 155.329 107.83 157.036 107.217C158.742 106.603 160.06 105.8 160.366 106.111C160.509 106.262 160.366 106.698 159.87 107.225C159.216 107.882 158.422 108.382 157.547 108.687C156.672 108.991 155.739 109.093 154.819 108.984C154.12 108.871 153.722 108.625 153.739 108.418Z" fill="#263238"/>
<path d="M173.672 108.405C173.383 108.737 172.346 108.323 171.08 108.241C169.814 108.159 168.721 108.357 168.488 107.981C168.389 107.8 168.579 107.459 169.063 107.156C169.712 106.792 170.456 106.63 171.198 106.69C171.941 106.75 172.649 107.029 173.231 107.493C173.672 107.873 173.784 108.232 173.672 108.405Z" fill="#263238"/>
<path d="M141.626 122.51C141.626 122.51 149.471 124.95 153.912 105.588C155.429 98.97 161.567 93.6089 161.567 93.6089L159.079 92.8572C159.079 92.8572 143.609 97.2161 143.346 97.4321C143.082 97.6481 139.458 105.433 139.458 105.433L141.626 122.51Z" fill="#263238"/>
<path d="M143.562 121.788C143.6 120.963 142.741 118.963 141.933 118.794C139.773 118.362 135.833 118.324 135.518 123.857C135.086 131.422 142.771 130.294 142.797 130.078C142.823 129.862 143.432 124.648 143.562 121.788Z" fill="#FFBF9D"/>
<path d="M140.65 127.08C140.62 127.054 140.512 127.167 140.283 127.257C139.962 127.375 139.608 127.361 139.298 127.218C138.516 126.881 137.915 125.572 137.954 124.194C137.974 123.545 138.137 122.908 138.429 122.328C138.514 122.096 138.654 121.888 138.836 121.721C139.019 121.555 139.24 121.436 139.479 121.373C139.633 121.342 139.793 121.365 139.931 121.439C140.069 121.514 140.177 121.634 140.235 121.779C140.326 121.995 140.27 122.147 140.309 122.16C140.348 122.173 140.477 122.043 140.434 121.728C140.402 121.538 140.308 121.365 140.166 121.235C139.965 121.067 139.706 120.984 139.445 121.002C139.131 121.046 138.834 121.17 138.581 121.361C138.329 121.552 138.129 121.805 138.002 122.095C137.638 122.744 137.441 123.472 137.427 124.216C137.388 125.741 138.088 127.21 139.155 127.59C139.355 127.66 139.569 127.685 139.78 127.662C139.99 127.639 140.193 127.568 140.373 127.456C140.624 127.262 140.676 127.097 140.65 127.08Z" fill="#FF9A6C"/>
<path d="M146.948 118.807C146.948 118.781 147.38 118.777 148.08 118.578C149.087 118.272 150.01 117.737 150.776 117.015C151.306 116.522 151.777 115.969 152.18 115.369C152.632 114.67 153.015 113.929 153.325 113.157C153.977 111.358 154.521 109.522 154.953 107.657C155.436 105.798 156.013 103.964 156.681 102.162C157.23 100.691 157.888 99.2624 158.651 97.8899C159.165 96.9642 159.743 96.075 160.379 95.2288C160.604 94.9307 160.811 94.7147 160.924 94.5592C160.981 94.4784 161.048 94.4045 161.122 94.3389C161.073 94.4253 161.017 94.5076 160.954 94.5851C160.842 94.745 160.656 94.9696 160.444 95.2763C159.832 96.1355 159.274 97.0314 158.772 97.959C158.03 99.3341 157.388 100.76 156.85 102.227C156.228 103.882 155.662 105.739 155.122 107.709C154.687 109.581 154.134 111.424 153.467 113.226C153.154 114.009 152.76 114.757 152.292 115.459C151.878 116.068 151.392 116.625 150.845 117.118C150.059 117.845 149.109 118.371 148.076 118.652C147.709 118.754 147.33 118.806 146.948 118.807Z" fill="#263238"/>
<path d="M136.611 151.082C136.57 150.964 136.543 150.843 136.529 150.719C136.481 150.451 136.416 150.097 136.334 149.643L135.656 145.535L135.837 145.509C135.876 145.786 135.92 146.088 135.963 146.403V146.373L136.123 146.714L135.932 146.784C134.775 142.801 133.959 138.727 133.496 134.605C133.204 131.99 133.049 129.362 133.034 126.73C133.06 123.965 133.034 121.028 133.781 118.09C134.081 116.881 134.545 115.718 135.159 114.634C135.761 113.597 136.461 112.621 137.25 111.718C138.788 109.943 140.447 108.413 141.959 106.897L150.08 98.905C152.387 96.6543 154.262 94.8269 155.576 93.5396L157.083 92.0967L157.481 91.7252C157.524 91.6794 157.573 91.6401 157.628 91.6085C157.592 91.6602 157.552 91.7079 157.507 91.7511L157.135 92.1442L155.671 93.6346L150.253 99.0821L142.184 107.122C140.676 108.647 139.021 110.185 137.509 111.938C135.893 113.711 134.729 115.848 134.118 118.168C133.392 121.036 133.401 123.961 133.371 126.713C133.393 133.473 134.317 140.199 136.118 146.714L135.928 146.784C135.876 146.667 135.82 146.546 135.777 146.442C135.738 146.127 135.699 145.82 135.665 145.548L135.846 145.518C136.101 147.28 136.3 148.667 136.442 149.639C136.503 150.097 136.55 150.456 136.585 150.723C136.603 150.842 136.612 150.962 136.611 151.082Z" fill="#455A64"/>
<path d="M130.653 116.112C130.682 115.999 130.727 115.891 130.787 115.792L131.219 114.902C131.604 114.133 132.209 113.04 132.999 111.723C133.79 110.405 134.801 108.867 135.993 107.212C137.185 105.558 138.585 103.817 140.162 102.063C141.739 100.309 143.337 98.7409 144.845 97.3671C146.352 95.9934 147.774 94.8356 149.009 93.9111C150.245 92.9867 151.256 92.2652 151.981 91.803L152.819 91.2673C152.913 91.2004 153.015 91.1453 153.122 91.1031C153.044 91.1886 152.955 91.2641 152.858 91.3278L152.072 91.911C151.372 92.4078 150.374 93.1552 149.169 94.1056C147.964 95.056 146.577 96.2353 145.069 97.6004C143.562 98.9655 142.002 100.555 140.434 102.292C138.866 104.029 137.479 105.778 136.261 107.403C135.043 109.027 134.032 110.547 133.237 111.848C132.442 113.148 131.785 114.215 131.366 114.967L130.869 115.831C130.809 115.933 130.736 116.027 130.653 116.112Z" fill="#455A64"/>
<path d="M141.095 148.654L141.017 148.628L141.095 148.654Z" fill="#455A64"/>
<path d="M197.994 244.312L187.146 211.255L186.282 179.84C186.019 174.423 185.617 166.5 185.617 166.5C182.079 155.432 170.829 146.088 170.829 146.088L164.444 147.043C164.203 153.955 153.644 160.223 146.076 155.644C143.272 153.631 141.116 148.68 141.116 148.68L128.239 154.888L137.086 218.12C137.086 218.12 128.36 234.402 128.36 244.286L197.994 244.312Z" fill="#455A64"/>
<g opacity="0.3">
<path d="M136.222 210.586C137.807 214.629 140.922 218.189 144.996 219.692C149.07 221.196 154.068 220.345 157.005 217.139C158.807 215.174 159.705 212.547 160.28 209.942C160.748 207.646 161.1 205.327 161.334 202.996C162.699 191.167 163.693 179.236 162.6 167.369L160.984 153.683L156.31 156.318L154.15 205.056L136.222 210.586Z" fill="black"/>
</g>
<path d="M164.6 146.779C164.6 146.779 173.987 144.421 181.621 144.218L194.283 141.021L196.443 163.64L184.351 171.39L164.6 146.779Z" fill="#455A64"/>
<path d="M142.248 181.56L120.022 192.714C120.022 192.714 113.866 159.726 128.174 154.888L129.003 159.571L142.248 181.56Z" fill="#455A64"/>
<path d="M184.926 153.182C184.926 153.182 184.926 153.233 184.926 153.329C184.926 153.424 184.947 153.588 184.96 153.761C184.986 154.162 185.025 154.728 185.068 155.45C185.163 156.918 185.276 159.044 185.409 161.666C185.673 166.919 185.984 174.194 186.273 182.19C186.563 190.187 186.796 197.47 186.943 202.723C187.008 205.341 187.064 207.475 187.099 208.949C187.099 209.67 187.124 210.245 187.129 210.642C187.129 210.823 187.129 210.97 187.129 211.074C187.136 211.123 187.136 211.172 187.129 211.221C187.123 211.172 187.123 211.123 187.129 211.074C187.129 210.962 187.12 210.818 187.103 210.642C187.103 210.24 187.06 209.674 187.029 208.949C186.973 207.467 186.896 205.346 186.8 202.728C186.61 197.462 186.368 190.2 186.066 182.199C185.764 174.198 185.47 166.941 185.267 161.675C185.15 159.057 185.059 156.923 184.995 155.454C184.964 154.733 184.943 154.158 184.926 153.765V153.333C184.918 153.283 184.918 153.232 184.926 153.182Z" fill="#263238"/>
<path d="M120.022 192.714C120.022 192.714 120.048 192.692 120.108 192.658L120.38 192.506L121.435 191.953L125.323 189.962L138.209 183.456L140.913 182.104L140.857 182.242C140.476 181.115 140.026 180.013 139.509 178.942C139.013 177.896 138.645 176.859 138.252 175.883C137.518 173.926 136.753 172.224 136.131 170.794C135.509 169.364 135.017 168.202 134.701 167.416C134.546 167.014 134.425 166.703 134.351 166.487C134.308 166.382 134.273 166.274 134.248 166.163C134.303 166.263 134.351 166.367 134.39 166.474L134.775 167.381C135.116 168.176 135.639 169.317 136.265 170.734C136.891 172.151 137.686 173.857 138.425 175.814C138.805 176.786 139.198 177.818 139.695 178.838C140.215 179.914 140.67 181.021 141.056 182.151L141.095 182.246L141.004 182.294L138.304 183.65L125.383 190.096L121.473 192.04L120.402 192.558L120.121 192.684C120.09 192.699 120.056 192.709 120.022 192.714Z" fill="#263238"/>
<path d="M166.293 129.249C165.437 128.654 164.438 128.297 163.399 128.212C163.075 128.171 162.745 128.205 162.436 128.311C162.213 128.419 162.016 128.573 161.858 128.763C161.7 128.953 161.585 129.175 161.52 129.413C161.396 129.891 161.34 130.384 161.356 130.877C161.34 131.065 161.37 131.253 161.442 131.426C161.544 131.566 161.679 131.679 161.835 131.754C161.991 131.829 162.163 131.865 162.336 131.858C163.511 131.955 164.69 131.739 165.753 131.232" fill="#FF9A6C"/>
<path d="M122.847 191.293C127.392 201.851 136.028 212.569 141.35 214.53C149.277 217.45 155.839 215.999 158.88 206.322C161.922 196.645 159.969 153.704 159.969 153.704L146.75 152.948L144.296 189.958C144.296 189.958 142.836 187.085 140.265 182.553" fill="#FFBF9D"/>
<path d="M179.5 114.142L176.169 111.714L175.659 107.541C175.659 107.541 169.646 107.696 169.279 104.474C169.279 104.474 165.823 105.394 165.978 101.985C165.978 101.985 164.216 100.789 164.859 99.687C165.503 98.5854 170.475 96.9351 170.76 96.8444C171.045 96.7537 174.294 96.0625 174.294 96.0625L173.331 94.9911L170.739 95.2676C170.739 95.2676 169.175 96.7407 167.883 96.9222C166.592 97.1036 166.505 96.555 166.505 96.555C166.505 96.555 165.032 94.9911 166.963 93.423C168.617 92.1601 170.596 91.3943 172.67 91.2154C173.966 91.1247 175.694 93.6087 175.694 93.6087L177.093 96.0927C177.093 96.0927 179.858 95.7255 180.778 97.8207V99.2938C180.778 99.2938 182.804 99.0174 183.634 101.415L184.187 103.532C184.187 103.532 186.58 106.659 186.671 107.951" fill="#FFBF9D"/>
<path d="M186.679 107.973C186.679 107.973 186.658 107.856 186.602 107.644C186.501 107.332 186.374 107.028 186.222 106.737C185.615 105.634 184.922 104.581 184.148 103.588V103.566C183.979 102.936 183.789 102.218 183.586 101.45C183.404 100.879 183.072 100.369 182.623 99.9721C182.116 99.5485 181.463 99.3393 180.804 99.3889H180.718V99.3025C180.718 98.8489 180.718 98.3478 180.718 97.8294V97.8639C180.438 97.235 179.928 96.7372 179.292 96.4729C178.608 96.198 177.866 96.0957 177.132 96.1748H177.072L177.042 96.123L175.633 93.639C175.328 93.2151 174.994 92.8137 174.631 92.438C174.271 92.0467 173.851 91.7157 173.387 91.4574C173.156 91.3383 172.898 91.2831 172.639 91.2975C172.367 91.2975 172.095 91.3623 171.819 91.4055C171.262 91.5102 170.713 91.6546 170.177 91.8375C169.067 92.1926 168.029 92.741 167.11 93.4575C166.633 93.7954 166.287 94.2887 166.134 94.8529C166.088 95.1399 166.108 95.4334 166.19 95.712C166.272 95.9907 166.415 96.2476 166.609 96.4643H166.63V96.5031C166.664 96.569 166.712 96.6263 166.771 96.6705C166.83 96.7148 166.899 96.7447 166.972 96.758C167.143 96.8037 167.321 96.8227 167.499 96.8142C167.873 96.8035 168.241 96.7198 168.583 96.5679C169.292 96.2337 169.949 95.797 170.531 95.2719L170.678 95.138L170.708 95.1121H170.743L173.335 94.8356H173.391L173.43 94.8788L174.393 95.9545L174.523 96.0971L174.333 96.1403L170.985 96.879C169.926 97.2015 168.885 97.5793 167.866 98.0108C167.365 98.2182 166.877 98.4428 166.401 98.6804C165.93 98.8957 165.493 99.1796 165.105 99.5228C164.942 99.6918 164.847 99.9147 164.838 100.149C164.84 100.388 164.909 100.621 165.036 100.823C165.303 101.233 165.646 101.588 166.047 101.869L166.09 101.899V101.959C166.09 102.171 166.09 102.391 166.112 102.594C166.133 102.802 166.18 103.007 166.25 103.203C166.372 103.589 166.63 103.918 166.976 104.128C167.686 104.481 168.501 104.56 169.266 104.348L169.352 104.344V104.443C169.394 104.787 169.508 105.118 169.685 105.415C169.862 105.713 170.099 105.97 170.38 106.171C170.914 106.554 171.512 106.836 172.147 107.005C173.285 107.318 174.461 107.472 175.642 107.463H175.707V107.523C175.901 109.178 176.065 110.547 176.199 111.701V111.666L178.662 113.489L179.292 113.965L179.5 114.133L179.275 113.986L178.631 113.533L176.143 111.744V111.718C175.996 110.578 175.823 109.2 175.612 107.549L175.685 107.61C174.489 107.632 173.295 107.486 172.138 107.178C171.483 107.003 170.865 106.711 170.315 106.314C170.014 106.102 169.76 105.83 169.569 105.514C169.379 105.199 169.256 104.848 169.209 104.482L169.322 104.56C168.923 104.656 168.513 104.694 168.103 104.672C167.676 104.656 167.258 104.537 166.885 104.327C166.501 104.094 166.213 103.73 166.073 103.303C165.997 103.092 165.946 102.873 165.922 102.65C165.896 102.43 165.922 102.218 165.9 101.981L165.943 102.072C165.515 101.777 165.151 101.4 164.872 100.961C164.725 100.727 164.644 100.456 164.639 100.179C164.648 99.8911 164.765 99.6167 164.967 99.4105C165.369 99.0513 165.822 98.7529 166.311 98.5249C166.79 98.2787 167.283 98.054 167.788 97.8467C168.812 97.4115 169.857 97.0294 170.92 96.7018L174.294 95.9545L174.234 96.1403L173.24 95.0646L173.335 95.1035L170.743 95.3799L170.808 95.3497L170.652 95.4879C170.053 96.0247 169.377 96.4702 168.648 96.8098C168.28 96.9722 167.883 97.0603 167.481 97.0691C167.279 97.0796 167.076 97.0577 166.881 97.0043C166.768 96.9819 166.662 96.9303 166.575 96.8545C166.488 96.7787 166.422 96.6814 166.384 96.5723L166.414 96.6327C166.199 96.3917 166.041 96.1055 165.952 95.7952C165.862 95.4849 165.843 95.1585 165.896 94.8399C165.968 94.5279 166.104 94.234 166.293 93.9759C166.397 93.855 166.492 93.734 166.604 93.6217C166.717 93.5094 166.829 93.41 166.95 93.315C167.892 92.5849 168.955 92.0263 170.091 91.6647C170.637 91.4813 171.196 91.3369 171.763 91.2327C172.043 91.1895 172.32 91.1463 172.605 91.1247C172.904 91.1071 173.202 91.1698 173.469 91.3062C173.952 91.5769 174.39 91.9224 174.765 92.33C175.133 92.7161 175.474 93.1275 175.784 93.5612L177.18 96.0538L177.089 96.0063C177.857 95.9232 178.634 96.0346 179.348 96.3303C180.025 96.6122 180.567 97.1446 180.86 97.8164V97.8639C180.86 98.3823 180.86 98.8835 180.86 99.3371L180.774 99.2593C181.476 99.2104 182.169 99.4384 182.705 99.8943C183.168 100.311 183.511 100.843 183.699 101.437C183.897 102.206 184.079 102.923 184.243 103.553C185.011 104.557 185.692 105.626 186.278 106.746C186.426 107.042 186.546 107.352 186.636 107.67C186.659 107.77 186.674 107.871 186.679 107.973Z" fill="#FF9A6C"/>
<path d="M180.757 109.666C180.731 109.688 180.511 109.463 180.1 109.165C179.567 108.785 178.986 108.477 178.372 108.249C177.752 108.014 177.117 107.819 176.471 107.666C175.975 107.575 175.655 107.584 175.651 107.545C175.925 107.471 176.213 107.459 176.493 107.511C177.162 107.618 177.818 107.795 178.45 108.038C179.092 108.269 179.689 108.608 180.217 109.04C180.442 109.205 180.626 109.42 180.757 109.666Z" fill="#FF9A6C"/>
<path d="M181.733 103.605C181.569 103.647 181.401 103.667 181.232 103.666L179.867 103.743C178.713 103.8 177.119 103.86 175.361 103.916L172.877 103.981C172.206 103.982 171.535 104.021 170.868 104.098C170.418 104.146 169.973 104.233 169.538 104.357C169.235 104.452 169.076 104.534 169.067 104.517C169.194 104.408 169.34 104.326 169.499 104.275C169.929 104.116 170.375 104.003 170.829 103.938C171.502 103.841 172.18 103.786 172.86 103.774L175.344 103.687C177.102 103.635 178.696 103.601 179.85 103.584H181.215C181.388 103.574 181.561 103.581 181.733 103.605Z" fill="#FF9A6C"/>
<path d="M178.96 99.7302C178.796 99.7857 178.626 99.8205 178.454 99.8338L177.068 100.041C175.892 100.214 174.277 100.473 172.501 100.797C170.726 101.121 169.123 101.467 167.965 101.722L166.596 102.024C166.429 102.07 166.259 102.099 166.086 102.11C166.241 102.032 166.405 101.974 166.574 101.938C166.89 101.843 167.356 101.717 167.931 101.566C169.08 101.272 170.678 100.905 172.458 100.573C174.238 100.24 175.867 100.015 177.046 99.8857C177.633 99.8166 178.113 99.7691 178.446 99.7475C178.616 99.7236 178.788 99.7178 178.96 99.7302Z" fill="#FF9A6C"/>
<path d="M173.491 93.3755C173.547 93.3755 173.707 93.7168 173.681 94.1963C173.655 94.6758 173.465 95.0214 173.408 94.9955C173.352 94.9696 173.439 94.6196 173.456 94.1833C173.473 93.747 173.426 93.3928 173.491 93.3755Z" fill="#FF9A6C"/>
<path d="M132.42 122.522C136.088 127.361 145.592 141.371 149.48 146.382C150.296 147.44 152.677 147.051 153.727 146.222C156.223 144.261 160.595 140.848 163.205 138.973C163.467 138.785 163.689 138.547 163.856 138.272C164.024 137.996 164.135 137.69 164.182 137.371C164.228 137.052 164.21 136.727 164.129 136.415C164.047 136.103 163.903 135.811 163.706 135.556L145.16 111.472C144.957 111.208 144.702 110.99 144.41 110.83C144.118 110.67 143.796 110.573 143.465 110.544C143.133 110.515 142.8 110.556 142.485 110.662C142.17 110.769 141.88 110.941 141.635 111.165L132.727 119.3C132.284 119.703 132.007 120.256 131.951 120.852C131.894 121.448 132.061 122.043 132.42 122.522Z" fill="#455A64"/>
<path d="M146.413 195.643L144.296 189.958L146.741 152.957C146.741 152.957 141.877 144.088 141.332 142.122C140.788 140.157 140.654 134.519 140.654 134.519L144.063 138.472C144.063 138.472 144.158 131.677 144.158 129.4C144.158 129.4 144.642 120.859 144.724 119.671C144.806 118.483 146.02 117.853 146.784 117.853C147.549 117.853 148.309 119.261 148.309 119.261L149.35 133.236C149.35 133.236 151.078 125.892 151.718 124.912C152.357 123.931 154.616 123.473 156.133 123.581H156.176C156.431 123.617 156.669 123.728 156.86 123.899C157.052 124.071 157.188 124.295 157.251 124.545C157.315 124.794 157.303 125.056 157.217 125.298C157.131 125.541 156.974 125.752 156.768 125.905L154.768 127.305L154.012 134.316C154.012 134.316 155.852 128.268 156.828 127.486C157.805 126.704 159.537 127.486 159.852 128.35C160.168 129.214 158.988 130.942 158.988 130.942L158.66 135.262C158.66 135.262 159.956 133.422 160.6 132.446C161.243 131.469 162.889 132.446 163.088 132.878C163.287 133.31 161.922 138.04 161.922 138.04L159.969 153.735L160.587 176.333" fill="#FFBF9D"/>
<path d="M160.587 176.311C160.587 176.311 160.587 176.181 160.587 175.922C160.587 175.663 160.565 175.274 160.543 174.773C160.513 173.758 160.466 172.263 160.405 170.323C160.293 166.435 160.129 160.793 159.921 153.717C160.492 149.078 161.144 143.812 161.857 138.023C162.112 137.159 162.358 136.26 162.587 135.353C162.703 134.899 162.816 134.441 162.911 133.979C162.958 133.746 163.002 133.513 163.032 133.279C163.045 133.178 163.045 133.075 163.032 132.973C162.974 132.882 162.902 132.8 162.82 132.731C162.461 132.429 162.021 132.239 161.554 132.186C161.331 132.159 161.105 132.215 160.919 132.342C160.747 132.501 160.601 132.686 160.487 132.891L158.759 135.375L158.556 135.673L158.582 135.314C158.682 133.971 158.794 132.485 158.906 130.994V130.968V130.947C159.209 130.494 159.46 130.009 159.654 129.499C159.75 129.251 159.801 128.988 159.805 128.722C159.795 128.463 159.683 128.22 159.494 128.044C159.106 127.659 158.602 127.413 158.059 127.344C157.796 127.289 157.523 127.312 157.272 127.41C157.022 127.507 156.804 127.675 156.647 127.892C156.34 128.374 156.079 128.883 155.865 129.413C155.645 129.944 155.433 130.484 155.23 131.037C154.828 132.135 154.457 133.258 154.102 134.394L153.895 134.351C154.133 132.148 154.392 129.763 154.651 127.344V127.24L154.694 127.214L156.586 125.888C156.743 125.797 156.878 125.672 156.982 125.523C157.085 125.373 157.153 125.203 157.183 125.024C157.209 124.847 157.197 124.665 157.145 124.494C157.093 124.322 157.004 124.164 156.884 124.03C156.758 123.901 156.605 123.8 156.435 123.736C156.266 123.672 156.084 123.646 155.904 123.659C155.517 123.648 155.13 123.665 154.746 123.711C153.971 123.789 153.216 124.005 152.517 124.35C152.176 124.514 151.896 124.781 151.718 125.115C151.549 125.472 151.405 125.84 151.286 126.216C151.044 126.972 150.824 127.745 150.616 128.523C150.199 130.078 149.804 131.651 149.432 133.241L149.264 133.945L149.208 133.223C149.07 131.34 148.918 129.335 148.776 127.283C148.571 124.579 148.371 121.901 148.175 119.248V119.296C147.943 118.848 147.622 118.451 147.234 118.129C146.853 117.809 146.326 117.961 145.886 118.168C145.439 118.374 145.088 118.744 144.905 119.201C144.826 119.433 144.786 119.677 144.788 119.922L144.741 120.691C144.623 122.73 144.505 124.746 144.387 126.739C144.335 127.737 144.253 128.73 144.227 129.715C144.201 130.7 144.227 131.685 144.197 132.666C144.176 134.619 144.156 136.545 144.136 138.446V138.731L143.95 138.515L140.576 134.584L140.758 134.511C140.81 136.265 140.896 137.997 141.06 139.695C141.123 140.532 141.256 141.363 141.458 142.179C141.739 142.957 142.065 143.719 142.434 144.46C143.868 147.423 145.376 150.231 146.832 152.914V152.94C145.674 170.008 144.788 183.089 144.326 189.941C145.022 191.846 145.544 193.267 145.894 194.217C146.063 194.688 146.192 195.042 146.279 195.28C146.365 195.518 146.4 195.639 146.4 195.639L146.262 195.289L145.86 194.23C145.501 193.284 144.97 191.867 144.253 189.966C144.685 183.115 145.549 170.03 146.646 152.961V153.009C145.186 150.326 143.674 147.522 142.231 144.55C141.855 143.802 141.525 143.032 141.242 142.243C141.024 141.418 140.879 140.575 140.81 139.725C140.641 138.023 140.555 136.29 140.503 134.541V134.247L140.697 134.472L144.106 138.425L143.916 138.494C143.936 136.587 143.956 134.657 143.976 132.705C143.976 131.729 143.986 130.746 144.007 129.759C144.028 128.769 144.11 127.776 144.162 126.778C144.28 124.779 144.398 122.763 144.516 120.73L144.56 119.965C144.561 119.698 144.604 119.432 144.689 119.179C144.895 118.669 145.285 118.256 145.782 118.021C146.025 117.901 146.286 117.821 146.555 117.784C146.7 117.763 146.847 117.774 146.987 117.814C147.122 117.857 147.249 117.921 147.363 118.004C147.779 118.346 148.123 118.767 148.374 119.244V119.265V119.291C148.573 121.938 148.773 124.615 148.975 127.322C149.126 129.357 149.277 131.379 149.407 133.262H149.186C149.564 131.672 149.96 130.097 150.374 128.536C150.582 127.758 150.806 126.985 151.048 126.221C151.166 125.832 151.31 125.453 151.48 125.084C151.678 124.708 151.992 124.406 152.374 124.22C153.096 123.859 153.878 123.635 154.681 123.559C155.077 123.51 155.475 123.492 155.874 123.503C156.083 123.489 156.293 123.52 156.489 123.595C156.685 123.67 156.863 123.786 157.01 123.935C157.225 124.171 157.354 124.474 157.374 124.792C157.395 125.111 157.306 125.428 157.122 125.689C157.005 125.858 156.859 126.004 156.69 126.121L154.798 127.443L154.841 127.365C154.582 129.789 154.323 132.173 154.081 134.372L153.873 134.329C154.228 133.177 154.605 132.055 155.005 130.964C155.208 130.411 155.437 129.867 155.649 129.331C155.868 128.787 156.137 128.265 156.452 127.771C156.54 127.645 156.644 127.532 156.763 127.434C156.889 127.345 157.025 127.272 157.17 127.218C157.457 127.126 157.761 127.1 158.059 127.141C158.648 127.217 159.196 127.484 159.619 127.901C159.839 128.117 159.969 128.409 159.982 128.717C159.978 129.013 159.923 129.305 159.818 129.581C159.619 130.107 159.36 130.607 159.044 131.072V131.024C158.928 132.532 158.816 134.018 158.716 135.344L158.539 135.28L160.267 132.804L160.479 132.497C160.553 132.384 160.647 132.285 160.755 132.204C160.977 132.051 161.247 131.983 161.515 132.014C162.022 132.073 162.5 132.28 162.889 132.61C162.994 132.693 163.082 132.796 163.148 132.912C163.174 133.046 163.174 133.184 163.148 133.318C163.118 133.56 163.075 133.798 163.027 134.031C162.928 134.502 162.816 134.96 162.699 135.418C162.466 136.325 162.215 137.215 161.965 138.088C161.239 143.876 160.578 149.142 159.999 153.782C160.176 160.863 160.319 166.509 160.431 170.393C160.474 172.328 160.509 173.823 160.531 174.842C160.531 175.343 160.531 175.728 160.552 175.991C160.574 176.255 160.587 176.311 160.587 176.311Z" fill="#FF9A6C"/>
<path d="M144.296 146.382C144.213 145.875 144.171 145.362 144.171 144.848C144.123 143.898 144.076 142.589 144.037 141.137C143.998 139.686 143.972 138.377 143.963 137.427C143.939 136.914 143.952 136.4 144.002 135.889C144.079 136.396 144.119 136.909 144.123 137.422C144.171 138.373 144.218 139.682 144.261 141.133C144.305 142.585 144.326 143.894 144.331 144.844C144.355 145.357 144.343 145.871 144.296 146.382Z" fill="#FF9A6C"/>
<path d="M165.753 131.219C165.623 131.318 165.477 131.395 165.321 131.448C164.92 131.625 164.5 131.757 164.069 131.841C163.426 131.969 162.767 131.998 162.116 131.927C161.913 131.902 161.719 131.83 161.55 131.715C161.46 131.648 161.385 131.562 161.332 131.463C161.279 131.363 161.249 131.253 161.243 131.141C161.225 130.724 161.241 130.307 161.291 129.892C161.337 129.466 161.495 129.059 161.749 128.713C161.87 128.546 162.025 128.405 162.204 128.3C162.382 128.196 162.58 128.129 162.786 128.104C163.444 128.069 164.103 128.165 164.725 128.385C165.138 128.529 165.532 128.725 165.896 128.968C166.038 129.044 166.166 129.144 166.276 129.262C165.76 128.979 165.219 128.743 164.66 128.558C164.059 128.37 163.428 128.294 162.799 128.333C162.623 128.356 162.453 128.414 162.301 128.505C162.149 128.595 162.017 128.716 161.913 128.86C161.686 129.178 161.546 129.551 161.507 129.94C161.46 130.337 161.443 130.737 161.455 131.137C161.455 131.508 161.796 131.685 162.142 131.733C162.771 131.812 163.408 131.8 164.034 131.698C164.617 131.578 165.192 131.418 165.753 131.219Z" fill="#263238"/>
<path d="M215.308 140.632C214.92 140.683 214.526 140.683 214.137 140.632C212.249 140.505 210.41 139.976 208.742 139.081C208.388 138.915 208.058 138.701 207.761 138.446C208.121 138.588 208.472 138.752 208.811 138.939C209.647 139.336 210.514 139.667 211.403 139.928C212.297 140.183 213.21 140.365 214.133 140.472C214.528 140.502 214.92 140.556 215.308 140.632Z" fill="#FF9A6C"/>
<defs>
<linearGradient id="paint0_linear_22_748" x1="143" y1="0" x2="143" y2="286" gradientUnits="userSpaceOnUse">
<stop stop-color="#FF9960"/>
<stop offset="1" stop-color="#FF9960"/>
</linearGradient>
</defs>
</svg>
