<svg width="353" height="270" viewBox="0 0 353 270" fill="none" xmlns="http://www.w3.org/2000/svg">
<path d="M177.095 230.988C177.332 164.094 177.193 142.428 177.095 139.957M168.792 230.988C184.923 230.988 184.903 230.988 185.99 230.988" stroke="white" stroke-width="9.48861" stroke-linecap="round"/>
<path d="M200.816 251.152C200.342 174.057 200.619 145.294 200.816 140.55" stroke="white" stroke-width="10.6747" stroke-linecap="round"/>
<path d="M316.459 139.067C316.459 201.04 316.459 223.575 316.459 227.43" stroke="white" stroke-width="10.6747" stroke-linecap="round"/>
<path d="M6.60135 137.585C66.7947 167.237 86.6563 118.212 86.9528 99.6303C87.2494 81.0485 74.2025 74.7228 58.1905 74.7228C42.1785 74.7228 18.2665 85.9905 10.7475 107.34C3.2285 128.689 6.89274 140.847 6.89274 140.847C6.89274 140.847 11.5537 162.16 22.3117 172.871C30.4341 180.957 35.3446 186.859 46.6262 188.883C52.2145 189.885 64.0222 188.278 72.8171 186.781C73.556 186.656 73.472 186.137 72.7329 186.262C63.476 187.817 51.0409 190.601 46.6262 194.813C37.718 203.311 31.7597 214.977 35.062 226.837C38.0493 237.566 46.8307 246.763 57.301 250.559C65.4658 253.518 80.1329 250.262 87.2494 244.628C98.1083 236.032 105.634 224.168 105.634 224.168" stroke="white" stroke-width="10.6747" stroke-linecap="round"/>
<path d="M69.7547 136.399C287.193 135.934 345.184 135.81 347 135.806" stroke="white" stroke-width="10.6747" stroke-linecap="round"/>
<path d="M188.066 252.634C203.248 252.871 208.822 252.733 209.712 252.634" stroke="white" stroke-width="10.6747" stroke-linecap="round"/>
<path d="M188.955 264.495H209.119" stroke="white" stroke-width="9.48861" stroke-linecap="round"/>
<path d="M229.282 170.795C294.291 170.795 314.487 170.795 316.459 170.795" stroke="white" stroke-width="9.48861" stroke-linecap="round"/>
<path d="M304.894 230.099C319.364 230.336 324.959 230.198 325.947 230.099" stroke="white" stroke-width="9.48861" stroke-linecap="round"/>
<path d="M180.06 184.138C180.06 205.919 163.2 223.575 142.402 223.575C121.604 223.575 104.744 205.919 104.744 184.138C104.744 162.358 121.604 144.701 142.402 144.701C163.2 144.701 180.06 162.358 180.06 184.138ZM112.844 184.138C112.844 201.234 126.078 215.093 142.402 215.093C158.726 215.093 171.96 201.234 171.96 184.138C171.96 167.043 158.726 153.184 142.402 153.184C126.078 153.184 112.844 167.043 112.844 184.138Z" fill="white"/>
<path d="M268.277 168.007C271.017 172.084 272.596 176.869 272.835 181.821C273.074 186.774 271.964 191.697 269.629 196.033C267.294 200.37 263.829 203.947 259.624 206.36C255.42 208.773 250.644 209.927 245.836 209.689C241.029 209.452 236.381 207.834 232.42 205.018C228.458 202.202 225.34 198.3 223.419 193.754C221.497 189.207 220.848 184.198 221.545 179.291C222.242 174.385 224.257 169.777 227.363 165.989L236.448 173.896C234.774 175.938 233.687 178.421 233.312 181.066C232.936 183.711 233.286 186.411 234.322 188.861C235.357 191.312 237.038 193.415 239.173 194.933C241.309 196.451 243.814 197.323 246.405 197.451C248.996 197.579 251.571 196.957 253.837 195.656C256.103 194.356 257.971 192.428 259.23 190.09C260.488 187.753 261.087 185.099 260.958 182.43C260.829 179.76 259.978 177.181 258.501 174.984L268.277 168.007Z" fill="white"/>
<path d="M238.196 9.41448C208.3 9.41448 184.063 33.6521 184.063 63.5477V75.3158H202.892C204.14 75.3158 205.337 75.8118 206.22 76.6945C207.103 77.5773 207.599 78.7746 207.599 80.0231V127.095C207.599 128.344 207.103 129.541 206.22 130.424C205.337 131.307 204.14 131.803 202.892 131.803H195.831C190.213 131.803 184.825 129.571 180.853 125.598C176.88 121.626 174.648 116.238 174.648 110.62V63.5477C174.648 28.4506 203.099 0 238.196 0C273.293 0 301.744 28.4506 301.744 63.5477V110.62C301.744 116.238 299.512 121.626 295.54 125.598C291.567 129.571 286.179 131.803 280.561 131.803H273.5C272.252 131.803 271.055 131.307 270.172 130.424C269.289 129.541 268.793 128.344 268.793 127.095V80.0231C268.793 78.7746 269.289 77.5773 270.172 76.6945C271.055 75.8118 272.252 75.3158 273.5 75.3158H292.329V63.5477C292.329 33.6521 268.092 9.41448 238.196 9.41448ZM242.903 70.6086C242.903 69.3601 242.407 68.1628 241.525 67.2801C240.642 66.3973 239.444 65.9013 238.196 65.9013C236.948 65.9013 235.75 66.3973 234.868 67.2801C233.985 68.1628 233.489 69.3601 233.489 70.6086V120.98C233.489 122.228 233.44 125.138 234.323 126.021C235.206 126.903 236.929 128.096 238.177 128.096C239.426 128.096 240.853 127.2 241.736 126.317C242.618 125.434 242.903 122.228 242.903 120.98V101.206V70.6086ZM221.721 84.7303C222.969 84.7303 224.166 85.2262 225.049 86.109C225.932 86.9918 226.428 88.1891 226.428 89.4375V112.974C226.428 114.222 225.932 115.419 225.049 116.302C224.166 117.185 222.969 117.681 221.721 117.681C220.472 117.681 219.275 117.185 218.392 116.302C217.509 115.419 217.013 114.222 217.013 112.974V89.4375C217.013 88.1891 217.509 86.9918 218.392 86.109C219.275 85.2262 220.472 84.7303 221.721 84.7303ZM259.379 89.4375C259.379 88.1891 258.883 86.9918 258 86.109C257.117 85.2262 255.92 84.7303 254.671 84.7303C253.423 84.7303 252.226 85.2262 251.343 86.109C250.46 86.9918 249.964 88.1891 249.964 89.4375V112.974C249.964 114.222 250.46 115.419 251.343 116.302C252.226 117.185 253.423 117.681 254.671 117.681C255.92 117.681 257.117 117.185 258 116.302C258.883 115.419 259.379 114.222 259.379 112.974V89.4375Z" fill="white"/>
<path d="M238.471 69.3853V111.491V123.055" stroke="white" stroke-width="10.6747" stroke-linecap="round"/>
<path d="M254.483 88.9558V107.566V112.677" stroke="white" stroke-width="10.6747" stroke-linecap="round"/>
<path d="M221.866 89.5488V108.159V113.27" stroke="white" stroke-width="10.6747" stroke-linecap="round"/>
</svg>
