<svg width="289" height="302" viewBox="0 0 289 302" fill="none" xmlns="http://www.w3.org/2000/svg">
<path d="M288.797 89.6893C277.294 63.7642 258.717 41.6061 235.196 25.7567C211.675 9.90733 184.164 1.00844 155.816 0.0807334C127.469 -0.84697 99.4343 6.23409 74.9276 20.5117C50.421 34.7894 30.4348 55.6853 17.2617 80.8029C4.08845 105.921 -1.73833 134.243 0.449614 162.52C2.63756 190.798 12.7516 217.887 29.6318 240.679C46.5119 263.472 69.4745 281.044 95.8857 291.382C122.297 301.72 151.087 304.405 178.954 299.128L178.764 298.124C151.086 303.366 122.49 300.7 96.2579 290.432C70.0254 280.164 47.2182 262.71 30.4523 240.072C13.6863 217.434 3.64071 190.528 1.46757 162.442C-0.705575 134.355 5.08178 106.225 18.1658 81.2772C31.2499 56.3295 51.1008 35.5749 75.4416 21.3939C99.7824 7.2129 127.627 0.179757 155.783 1.10118C183.938 2.02261 211.264 10.8613 234.625 26.6034C257.987 42.3456 276.438 64.3537 287.863 90.1034L288.797 89.6893Z" fill="#FF5B00"/>
</svg>
