<svg width="452" height="452" viewBox="0 0 452 452" fill="none" xmlns="http://www.w3.org/2000/svg">
<g opacity="0.2" filter="url(#filter0_f_22_782)">
<circle cx="226" cy="226" r="186" fill="url(#paint0_linear_22_782)" fill-opacity="0.8"/>
</g>
<circle cx="226.2" cy="226.2" r="57.2" fill="url(#paint1_linear_22_782)"/>
<g clip-path="url(#clip0_22_782)">
<path d="M226.3 234.13C230.721 234.13 234.305 230.546 234.305 226.125V208.205C234.305 203.784 230.721 200.2 226.3 200.2C221.879 200.2 218.295 203.784 218.295 208.205V226.147C218.295 230.546 221.879 234.13 226.3 234.13ZM220.441 208.205C220.441 204.965 223.081 202.346 226.3 202.346C229.519 202.346 232.159 204.965 232.159 208.205V226.147C232.159 229.366 229.54 232.005 226.3 232.005C223.081 232.005 220.441 229.387 220.441 226.147V208.205Z" fill="#272727"/>
<path d="M242.245 220.438C241.644 220.438 241.172 220.91 241.172 221.511V225.932C241.172 234.023 234.755 240.762 226.665 240.89C218.445 240.998 211.706 234.345 211.706 226.147V221.511C211.706 220.91 211.234 220.438 210.633 220.438C210.032 220.438 209.56 220.91 209.56 221.511V225.932C209.56 235.225 216.964 242.929 226.257 243.015C231 243.058 235.292 241.169 238.382 238.079C241.43 235.031 243.318 230.804 243.318 226.147V221.511C243.318 220.91 242.825 220.438 242.245 220.438Z" fill="#272727"/>
<path d="M235.335 250.054H227.502V243.036H225.355V250.054H217.308C216.707 250.054 216.235 250.526 216.235 251.127C216.235 251.728 216.707 252.2 217.308 252.2H235.335C235.936 252.2 236.408 251.728 236.408 251.127C236.408 250.526 235.936 250.054 235.335 250.054Z" fill="#272727"/>
</g>
<defs>
<filter id="filter0_f_22_782" x="0" y="0" width="452" height="452" filterUnits="userSpaceOnUse" color-interpolation-filters="sRGB">
<feFlood flood-opacity="0" result="BackgroundImageFix"/>
<feBlend mode="normal" in="SourceGraphic" in2="BackgroundImageFix" result="shape"/>
<feGaussianBlur stdDeviation="20" result="effect1_foregroundBlur_22_782"/>
</filter>
<linearGradient id="paint0_linear_22_782" x1="226" y1="40" x2="226" y2="412" gradientUnits="userSpaceOnUse">
<stop stop-color="#FF9960" stop-opacity="0"/>
<stop offset="1" stop-color="#FF9960"/>
</linearGradient>
<linearGradient id="paint1_linear_22_782" x1="226.2" y1="169" x2="226.2" y2="283.4" gradientUnits="userSpaceOnUse">
<stop stop-color="#FF9960"/>
<stop offset="1" stop-color="#FF5B00"/>
</linearGradient>
<clipPath id="clip0_22_782">
<rect width="33.7582" height="52" fill="white" transform="translate(209.56 200.2)"/>
</clipPath>
</defs>
</svg>
