<svg width="86" height="65" viewBox="0 0 86 65" fill="none" xmlns="http://www.w3.org/2000/svg">
<path d="M43.143 55.5458C43.2 39.4596 43.1668 34.2497 43.143 33.6555M41.1465 55.5458C45.0254 55.5458 45.0207 55.5458 45.2821 55.5458" stroke="url(#paint0_linear_58_11)" stroke-width="2.28172" stroke-linecap="round"/>
<path d="M48.8473 60.3941C48.7332 41.8552 48.7998 34.9387 48.8473 33.7979" stroke="url(#paint1_linear_58_11)" stroke-width="2.56693" stroke-linecap="round"/>
<path d="M76.6557 33.4414C76.6557 48.3439 76.6557 53.763 76.6557 54.6899" stroke="url(#paint2_linear_58_11)" stroke-width="2.56693" stroke-linecap="round"/>
<path d="M18.0675 44.9154C17.2938 45.047 16.4232 45.1823 15.5644 45.289C16.409 45.0858 17.2742 44.9203 18.0472 44.7904C18.2249 44.7606 18.2451 44.8851 18.0675 44.9154Z" fill="url(#paint3_linear_58_11)"/>
<path d="M2.14461 33.0851C16.6193 40.2155 21.3954 28.4266 21.4667 23.9582C21.538 19.4899 18.4006 17.9688 14.5502 17.9688C10.6998 17.9687 4.94971 20.6783 3.14162 25.8122C1.33354 30.946 2.21468 33.8695 2.21468 33.8695C2.21468 33.8695 3.3355 38.9947 5.92245 41.5703C7.87565 43.5149 9.05647 44.9341 11.7694 45.4207C13.1132 45.6617 15.9526 45.2753 18.0675 44.9154C18.2451 44.8851 18.2249 44.7606 18.0472 44.7904C15.8212 45.1644 12.831 45.834 11.7694 46.8467C9.62719 48.8903 8.19442 51.6955 8.98853 54.5475C9.70687 57.1275 11.8185 59.3391 14.3363 60.2518C16.2997 60.9636 19.8267 60.1805 21.538 58.8258C24.1492 56.7585 25.9588 53.9058 25.9588 53.9058" stroke="url(#paint4_linear_58_11)" stroke-width="2.56693" stroke-linecap="round"/>
<path d="M17.331 32.7998C69.6181 32.688 83.5633 32.6581 84 32.6572" stroke="url(#paint5_linear_58_11)" stroke-width="2.56693" stroke-linecap="round"/>
<path d="M45.7812 60.7507C49.432 60.8078 50.7725 60.7745 50.9864 60.7507" stroke="url(#paint6_linear_58_11)" stroke-width="2.56693" stroke-linecap="round"/>
<path d="M45.9951 63.603H50.8438" stroke="url(#paint7_linear_58_11)" stroke-width="2.28172" stroke-linecap="round"/>
<path d="M55.6924 41.0708C71.3251 41.0708 76.1816 41.0708 76.6557 41.0708" stroke="url(#paint8_linear_58_11)" stroke-width="2.28172" stroke-linecap="round"/>
<path d="M73.8749 55.3318C77.3545 55.3888 78.6997 55.3556 78.9374 55.3318" stroke="url(#paint9_linear_58_11)" stroke-width="2.28172" stroke-linecap="round"/>
<mask id="path-11-inside-1_58_11" fill="white">
<path d="M43.8561 44.2795C43.8561 49.5171 39.8017 53.7629 34.8005 53.7629C29.7992 53.7629 25.7449 49.5171 25.7449 44.2795C25.7449 39.042 29.7992 34.7961 34.8005 34.7961C39.8017 34.7961 43.8561 39.042 43.8561 44.2795ZM27.6927 44.2795C27.6927 48.3905 30.875 51.7231 34.8005 51.7231C38.726 51.7231 41.9083 48.3905 41.9083 44.2795C41.9083 40.1686 38.726 36.8359 34.8005 36.8359C30.875 36.8359 27.6927 40.1686 27.6927 44.2795Z"/>
</mask>
<path d="M43.8561 44.2795C43.8561 49.5171 39.8017 53.7629 34.8005 53.7629C29.7992 53.7629 25.7449 49.5171 25.7449 44.2795C25.7449 39.042 29.7992 34.7961 34.8005 34.7961C39.8017 34.7961 43.8561 39.042 43.8561 44.2795ZM27.6927 44.2795C27.6927 48.3905 30.875 51.7231 34.8005 51.7231C38.726 51.7231 41.9083 48.3905 41.9083 44.2795C41.9083 40.1686 38.726 36.8359 34.8005 36.8359C30.875 36.8359 27.6927 40.1686 27.6927 44.2795Z" fill="url(#paint10_linear_58_11)" stroke="url(#paint11_linear_58_11)" stroke-width="0.285215" mask="url(#path-11-inside-1_58_11)"/>
<mask id="path-12-inside-2_58_11" fill="white">
<path d="M65.0695 40.4006C65.7285 41.3809 66.1082 42.5315 66.1657 43.7225C66.2231 44.9135 65.9561 46.0973 65.3946 47.1401C64.8332 48.1828 63.9999 49.043 62.9888 49.6233C61.9778 50.2036 60.8293 50.481 59.6732 50.4239C58.5172 50.3669 57.3996 49.9778 56.447 49.3006C55.4944 48.6234 54.7446 47.6852 54.2825 46.5919C53.8203 45.4986 53.6642 44.294 53.8319 43.1141C53.9995 41.9342 54.4842 40.8262 55.2311 39.9153L57.4156 41.8166C57.013 42.3076 56.7518 42.9049 56.6614 43.5409C56.5711 44.1768 56.6552 44.8262 56.9043 45.4154C57.1534 46.0047 57.5575 46.5105 58.071 46.8755C58.5845 47.2405 59.1868 47.4502 59.81 47.4809C60.4331 47.5117 61.0522 47.3622 61.5971 47.0494C62.1421 46.7366 62.5913 46.273 62.8939 45.7109C63.1965 45.1488 63.3405 44.5108 63.3095 43.8688C63.2785 43.2269 63.0739 42.6066 62.7186 42.0782L65.0695 40.4006Z"/>
</mask>
<path d="M65.0695 40.4006C65.7285 41.3809 66.1082 42.5315 66.1657 43.7225C66.2231 44.9135 65.9561 46.0973 65.3946 47.1401C64.8332 48.1828 63.9999 49.043 62.9888 49.6233C61.9778 50.2036 60.8293 50.481 59.6732 50.4239C58.5172 50.3669 57.3996 49.9778 56.447 49.3006C55.4944 48.6234 54.7446 47.6852 54.2825 46.5919C53.8203 45.4986 53.6642 44.294 53.8319 43.1141C53.9995 41.9342 54.4842 40.8262 55.2311 39.9153L57.4156 41.8166C57.013 42.3076 56.7518 42.9049 56.6614 43.5409C56.5711 44.1768 56.6552 44.8262 56.9043 45.4154C57.1534 46.0047 57.5575 46.5105 58.071 46.8755C58.5845 47.2405 59.1868 47.4502 59.81 47.4809C60.4331 47.5117 61.0522 47.3622 61.5971 47.0494C62.1421 46.7366 62.5913 46.273 62.8939 45.7109C63.1965 45.1488 63.3405 44.5108 63.3095 43.8688C63.2785 43.2269 63.0739 42.6066 62.7186 42.0782L65.0695 40.4006Z" fill="url(#paint12_linear_58_11)" stroke="url(#paint13_linear_58_11)" stroke-width="0.187982" mask="url(#path-12-inside-2_58_11)"/>
<path d="M44.2526 18.1111V18.6771H44.8186H49.3464C49.4965 18.6771 49.6405 18.7367 49.7466 18.8429C49.8527 18.949 49.9124 19.093 49.9124 19.2431V30.5625C49.9124 30.7126 49.8527 30.8566 49.7466 30.9627C49.6405 31.0689 49.4965 31.1285 49.3464 31.1285H47.6485C46.4476 31.1285 45.296 30.6515 44.4468 29.8024C43.5977 28.9532 43.1207 27.8016 43.1207 26.6007V15.2813C43.1207 7.15406 49.7088 0.565973 57.836 0.565973C65.9632 0.565973 72.5513 7.15406 72.5513 15.2813V26.6007C72.5513 27.8016 72.0743 28.9532 71.2251 29.8024C70.376 30.6515 69.2243 31.1285 68.0235 31.1285H66.3256C66.1755 31.1285 66.0315 31.0689 65.9254 30.9627L65.5252 31.3629L65.9254 30.9627C65.8192 30.8566 65.7596 30.7127 65.7596 30.5625V19.2431C65.7596 19.093 65.8192 18.949 65.9254 18.8429C66.0315 18.7367 66.1755 18.6771 66.3256 18.6771H70.8534H71.4193V18.1111V15.2813C71.4193 7.7797 65.3376 1.69792 57.836 1.69792C50.3344 1.69792 44.2526 7.7797 44.2526 15.2813V18.1111ZM58.2362 16.579C58.3423 16.6851 58.402 16.8291 58.402 16.9792V24.3368V29.0919C58.402 29.2115 58.3873 29.4476 58.3492 29.6718C58.3302 29.7835 58.3079 29.8773 58.2847 29.9455C58.2762 29.9706 58.2693 29.987 58.2649 29.9965C58.198 30.0594 58.1126 30.123 58.0247 30.1702C57.9253 30.2235 57.8598 30.2363 57.8344 30.2372C57.8317 30.2367 57.8145 30.2343 57.7806 30.2222C57.7372 30.2066 57.6828 30.181 57.6212 30.1449C57.5113 30.0805 57.407 29.9998 57.3343 29.9322C57.3323 29.9266 57.3301 29.9196 57.3277 29.9111C57.3121 29.8567 57.298 29.7773 57.2879 29.6753C57.2695 29.4889 57.2698 29.2916 57.27 29.1369C57.27 29.1214 57.27 29.1064 57.27 29.0919V16.9792C57.27 16.8291 57.3296 16.6851 57.4358 16.579C57.5419 16.4728 57.6859 16.4132 57.836 16.4132C57.9861 16.4132 58.1301 16.4728 58.2362 16.579ZM53.8742 20.941C54.0243 20.941 54.1682 21.0006 54.2744 21.1068C54.3805 21.2129 54.4402 21.3569 54.4402 21.507V27.1667C54.4402 27.3168 54.3805 27.4608 54.2744 27.5669C54.1682 27.673 54.0243 27.7327 53.8742 27.7327C53.7241 27.7327 53.5801 27.673 53.474 27.5669C53.3678 27.4608 53.3082 27.3168 53.3082 27.1667V21.507C53.3082 21.3569 53.3678 21.2129 53.474 21.1068C53.5801 21.0006 53.7241 20.941 53.8742 20.941ZM62.198 21.1068C62.3041 21.2129 62.3638 21.3569 62.3638 21.507V27.1667C62.3638 27.3168 62.3041 27.4608 62.198 27.5669C62.0919 27.673 61.9479 27.7327 61.7978 27.7327C61.6477 27.7327 61.5037 27.673 61.3976 27.5669C61.2915 27.4608 61.2318 27.3168 61.2318 27.1667V21.507C61.2318 21.3569 61.2915 21.2129 61.3976 21.1068C61.5037 21.0006 61.6477 20.941 61.7978 20.941C61.9479 20.941 62.0919 21.0006 62.198 21.1068Z" fill="url(#paint14_linear_58_11)" stroke="url(#paint15_linear_58_11)" stroke-width="1.13195"/>
<path d="M57.9021 16.6851V26.8102V29.591" stroke="url(#paint16_linear_58_11)" stroke-width="2.56693" stroke-linecap="round"/>
<path d="M61.7525 21.3911V25.8663V27.0954" stroke="url(#paint17_linear_58_11)" stroke-width="2.56693" stroke-linecap="round"/>
<path d="M53.9091 21.5337V26.0089V27.238" stroke="url(#paint18_linear_58_11)" stroke-width="2.56693" stroke-linecap="round"/>
<defs>
<linearGradient id="paint0_linear_58_11" x1="43.2143" y1="33.6555" x2="43.2143" y2="55.5458" gradientUnits="userSpaceOnUse">
<stop stop-color="#FF9960"/>
<stop offset="1" stop-color="#FF5B00"/>
</linearGradient>
<linearGradient id="paint1_linear_58_11" x1="48.8158" y1="33.7979" x2="48.8158" y2="60.3941" gradientUnits="userSpaceOnUse">
<stop stop-color="#FF9960"/>
<stop offset="1" stop-color="#FF5B00"/>
</linearGradient>
<linearGradient id="paint2_linear_58_11" x1="76.6557" y1="33.4414" x2="76.6557" y2="54.6899" gradientUnits="userSpaceOnUse">
<stop stop-color="#FF9960"/>
<stop offset="1" stop-color="#FF5B00"/>
</linearGradient>
<linearGradient id="paint3_linear_58_11" x1="13.9794" y1="17.9687" x2="13.9794" y2="60.5201" gradientUnits="userSpaceOnUse">
<stop stop-color="#FF9960"/>
<stop offset="1" stop-color="#FF5B00"/>
</linearGradient>
<linearGradient id="paint4_linear_58_11" x1="13.9794" y1="17.9687" x2="13.9794" y2="60.5201" gradientUnits="userSpaceOnUse">
<stop stop-color="#FF9960"/>
<stop offset="1" stop-color="#FF5B00"/>
</linearGradient>
<linearGradient id="paint5_linear_58_11" x1="50.6655" y1="32.7285" x2="50.6677" y2="33.7285" gradientUnits="userSpaceOnUse">
<stop stop-color="#FF9960"/>
<stop offset="1" stop-color="#FF5B00"/>
</linearGradient>
<linearGradient id="paint6_linear_58_11" x1="48.3838" y1="60.7507" x2="48.3838" y2="60.7822" gradientUnits="userSpaceOnUse">
<stop stop-color="#FF9960"/>
<stop offset="1" stop-color="#FF5B00"/>
</linearGradient>
<linearGradient id="paint7_linear_58_11" x1="48.4195" y1="63.603" x2="48.4195" y2="64.603" gradientUnits="userSpaceOnUse">
<stop stop-color="#FF9960"/>
<stop offset="1" stop-color="#FF5B00"/>
</linearGradient>
<linearGradient id="paint8_linear_58_11" x1="66.1741" y1="41.0708" x2="66.1741" y2="42.0708" gradientUnits="userSpaceOnUse">
<stop stop-color="#FF9960"/>
<stop offset="1" stop-color="#FF5B00"/>
</linearGradient>
<linearGradient id="paint9_linear_58_11" x1="76.4061" y1="55.3318" x2="76.4061" y2="55.3633" gradientUnits="userSpaceOnUse">
<stop stop-color="#FF9960"/>
<stop offset="1" stop-color="#FF5B00"/>
</linearGradient>
<linearGradient id="paint10_linear_58_11" x1="34.8005" y1="34.7961" x2="34.8005" y2="53.7629" gradientUnits="userSpaceOnUse">
<stop stop-color="#FF9960"/>
<stop offset="1" stop-color="#FF5B00"/>
</linearGradient>
<linearGradient id="paint11_linear_58_11" x1="34.8005" y1="34.7961" x2="34.8005" y2="53.7629" gradientUnits="userSpaceOnUse">
<stop stop-color="#FF9960"/>
<stop offset="1" stop-color="#FF5B00"/>
</linearGradient>
<linearGradient id="paint12_linear_58_11" x1="59.9699" y1="37.6484" x2="59.9699" y2="50.4312" gradientUnits="userSpaceOnUse">
<stop stop-color="#FF9960"/>
<stop offset="1" stop-color="#FF5B00"/>
</linearGradient>
<linearGradient id="paint13_linear_58_11" x1="59.9699" y1="37.6484" x2="59.9699" y2="50.4312" gradientUnits="userSpaceOnUse">
<stop stop-color="#FF9960"/>
<stop offset="1" stop-color="#FF5B00"/>
</linearGradient>
<linearGradient id="paint14_linear_58_11" x1="57.836" y1="0" x2="57.836" y2="31.6945" gradientUnits="userSpaceOnUse">
<stop stop-color="#FF9960"/>
<stop offset="1" stop-color="#FF5B00"/>
</linearGradient>
<linearGradient id="paint15_linear_58_11" x1="57.836" y1="0" x2="57.836" y2="31.6945" gradientUnits="userSpaceOnUse">
<stop stop-color="#FF9960"/>
<stop offset="1" stop-color="#FF5B00"/>
</linearGradient>
<linearGradient id="paint16_linear_58_11" x1="58.4021" y1="16.6851" x2="58.4021" y2="29.591" gradientUnits="userSpaceOnUse">
<stop stop-color="#FF9960"/>
<stop offset="1" stop-color="#FF5B00"/>
</linearGradient>
<linearGradient id="paint17_linear_58_11" x1="62.2525" y1="21.3911" x2="62.2525" y2="27.0954" gradientUnits="userSpaceOnUse">
<stop stop-color="#FF9960"/>
<stop offset="1" stop-color="#FF5B00"/>
</linearGradient>
<linearGradient id="paint18_linear_58_11" x1="54.4091" y1="21.5337" x2="54.4091" y2="27.238" gradientUnits="userSpaceOnUse">
<stop stop-color="#FF9960"/>
<stop offset="1" stop-color="#FF5B00"/>
</linearGradient>
</defs>
</svg>
